<svg width="106" height="37" viewBox="0 0 106 37" fill="none" xmlns="http://www.w3.org/2000/svg">
<path d="M105.995 18.9036C106.029 17.6151 105.88 16.3553 105.551 15.1601C105.201 13.8897 104.642 12.7253 103.891 11.6967L103.791 11.5599L103.673 11.439C102.794 10.5397 101.681 9.984 100.364 9.78782L100.247 9.77085L100.13 9.76555C99.8592 9.75282 99.5867 9.7454 99.3195 9.7454C98.7373 9.7454 98.1573 9.77721 97.5954 9.83978C96.6782 9.94159 95.8267 10.2799 95.0845 10.8271L94.9466 10.6585C94.2702 9.83554 93.3137 9.34348 92.246 9.26819C92.0763 9.25122 91.9077 9.24274 91.7423 9.24274C90.7647 9.24274 89.8645 9.53649 89.1191 10.0943L88.8476 9.91719L88.3726 9.83342C87.9569 9.76025 87.5371 9.72313 87.1246 9.72313C86.2159 9.72313 85.3252 9.90341 84.4663 10.2544L83.7686 9.93734L83.2703 9.7104L82.7232 9.72631C80.4222 9.79418 79.2993 9.95219 78.5942 10.23C77.9485 9.86735 77.3208 9.76025 76.8065 9.76025C76.7821 9.76025 76.7577 9.76025 76.7344 9.76025H76.6994L76.6644 9.76237L74.5862 9.86629L71.5759 9.8313H71.4985L71.4221 9.83448C70.5792 9.88008 69.8115 10.0954 69.1276 10.4771C68.5518 10.0911 67.9814 9.98294 67.7142 9.95325L67.5148 9.93098L67.3144 9.94265L64.5724 10.1038L64.337 10.1176L64.109 10.1781C63.3785 10.3711 62.7433 10.7963 62.2704 11.4103C62.2036 11.3149 62.1368 11.2301 62.0679 11.1505L61.8208 10.8642L61.4964 10.6691C60.8347 10.2714 59.9706 10.0307 58.7077 9.89174C58.3864 9.83024 58.0609 9.79948 57.7386 9.79948C56.8384 9.79948 55.9551 10.0349 55.1121 10.5005L54.5396 10.8165L54.3466 11.1495C53.5195 10.4188 52.5101 9.95961 51.3405 9.78464L51.2239 9.76767L51.1062 9.76237C50.8358 9.74964 50.5633 9.74222 50.2961 9.74222C49.714 9.74222 49.134 9.77403 48.572 9.8366C47.3187 9.97658 46.1841 10.5556 45.2903 11.5111L45.2097 11.598L45.1376 11.6924C45.0846 11.7613 45.0358 11.8324 44.9849 11.9035C44.9372 11.8335 44.8895 11.7635 44.8396 11.6956L44.74 11.5588L44.6223 11.4379C43.7433 10.5386 42.6299 9.98294 41.313 9.78676L41.1963 9.76979L41.0787 9.76449C40.8083 9.75176 40.5358 9.74434 40.2686 9.74434C39.6864 9.74434 39.1064 9.77615 38.5445 9.83872C37.2911 9.9787 36.1566 10.5577 35.2627 11.5132L35.1821 11.6002L35.11 11.6945C35.0623 11.7571 35.0178 11.8207 34.9722 11.8844C34.4876 11.3934 33.9278 10.9946 33.2969 10.6998C32.5981 10.3732 31.8941 10.1357 31.2059 9.99143L30.9663 9.94159H30.7224C29.9812 9.94159 29.2114 9.98612 28.4342 10.0731C27.5796 10.1696 26.8522 10.3149 26.2107 10.5185L25.9912 10.5885L25.7897 10.6988C25.3253 10.9533 24.9139 11.2682 24.5555 11.6415C24.6022 11.0826 24.5534 10.4994 24.4018 9.90447L24.3996 9.89811L24.3975 9.89174C24.002 8.42087 22.9735 7.1621 21.4116 6.23101C21.418 5.47702 21.1349 4.75802 20.5878 4.14613C20.0502 3.54378 19.3716 3.16625 18.8944 2.95416C17.9772 2.52573 17.0622 2.33273 16.2224 2.38787C16.2033 2.37196 16.1842 2.35606 16.1651 2.34015C15.495 1.77704 14.687 1.34543 13.8303 1.09092C12.9746 0.837469 12.0627 0.757932 11.1922 0.862918C10.7818 0.9117 10.381 0.97745 10.0014 1.06017C8.07691 1.47799 6.59987 2.3147 5.61058 3.54696C5.14615 4.11855 4.78882 4.78771 4.55979 5.50989C4.46012 5.52368 3.87482 5.6732 3.64579 5.73259C3.58535 5.7485 3.52597 5.76546 3.46765 5.78667C2.3278 6.19919 1.3279 7.10377 0.71185 8.28195C-0.115208 9.78782 -0.228663 11.5047 0.408596 12.878C0.544318 13.1739 0.702307 13.4443 0.881503 13.6872C0.673679 14.2163 0.559163 14.7614 0.539016 15.3129C0.510387 16.1209 0.687463 16.9195 1.06388 17.6883V17.6904L1.066 17.6925C1.57814 18.7223 2.49003 19.471 3.70304 19.857C3.91829 19.9259 4.1399 19.981 4.36681 20.0235C4.001 20.2249 3.64791 20.4635 3.31602 20.7382C2.24297 21.6248 1.49013 22.7838 1.19642 24.0002C1.04691 24.6185 1.02359 25.2229 1.12538 25.7935C1.23565 26.4085 1.48589 26.9568 1.86973 27.4213C2.6512 28.3672 3.90557 28.8381 5.31157 28.715C6.49277 28.6111 7.69837 28.0957 8.70568 27.2633C9.35779 26.7246 9.89113 26.084 10.276 25.3926L8.03131 32.4034C7.66656 33.5412 7.93376 34.7491 8.74598 35.6282C9.5391 36.4872 10.7383 36.8478 11.8814 36.5996L21.4254 34.5285C22.5685 34.2804 23.51 33.4553 23.8758 32.345C24.1621 31.4744 24.0784 30.5613 23.6627 29.784C24.8153 29.4447 25.7335 28.7808 26.2839 27.908L26.5447 28.0151L26.9688 28.0289L30.1222 28.1339C30.4138 28.1647 30.7001 28.1795 30.9748 28.1795C32.4603 28.1795 33.7189 27.7437 34.7156 26.8847L34.7813 26.8274L34.8428 26.7659C35.0835 26.5252 35.3041 26.2749 35.5077 26.0183C35.9477 26.4393 36.4026 26.8126 36.8628 27.1243C37.5202 27.5697 38.2667 27.8826 39.081 28.0523L39.1648 28.0692L39.2496 28.0809C39.5412 28.1201 39.8338 28.1403 40.119 28.1403C40.803 28.1403 41.4667 28.0268 42.0913 27.802C42.9236 27.5029 43.6531 27.0639 44.2575 26.4987L44.3625 26.4L44.4547 26.2887C44.6689 26.0321 44.8704 25.7669 45.0591 25.4933L45.1843 25.6768L45.3412 25.8338C45.8406 26.3332 46.3612 26.767 46.8882 27.1233C47.5456 27.5687 48.2921 27.8815 49.1064 28.0512L49.1902 28.0682L49.275 28.0798C49.5666 28.1191 49.8592 28.1392 50.1445 28.1392C50.8284 28.1392 51.4922 28.0257 52.1167 27.8009C52.6946 27.5931 53.2216 27.3163 53.6923 26.9791C53.9193 27.276 54.2108 27.5348 54.5565 27.7362C54.9032 27.9388 55.3178 28.0957 55.8226 28.2166L56.1279 28.2898L56.4418 28.2803L58.8074 28.2081H58.8509L58.8943 28.2039C59.1011 28.1901 59.5348 28.1275 59.9759 27.8646C60.3003 28.0289 60.6163 28.1 60.8793 28.1254C61.2408 28.1785 61.5982 28.205 61.9438 28.205C62.6712 28.205 63.3668 28.0873 64.0126 27.854C64.1239 27.82 64.2289 27.7797 64.3275 27.7341L64.5915 27.9982L65.3613 28.1127C65.848 28.1848 66.3453 28.2219 66.8394 28.2219C67.5063 28.2219 68.1881 28.1551 68.8646 28.0236L70.1975 27.7638C70.4732 27.8699 70.7743 27.9685 71.1104 28.0586L71.4423 28.1477L71.7858 28.1382L74.9944 28.048H75.0379L75.0813 28.0438C75.5224 28.0151 76.2509 27.9208 77.992 27.4743L78.6112 27.7288L79.3099 28.0151L79.7903 28.2124L80.3088 28.1901L82.6754 28.0862L84.5819 28.205L86.8754 28.3481L87.29 28.3736L87.6887 28.2569L88.907 27.8985L88.9727 27.8794L89.0067 27.8985L89.5824 28.2283L90.2462 28.2092L92.6839 28.1371L94.2002 28.0926L94.7887 26.6938C94.8353 26.5825 94.8788 26.469 94.9223 26.3566C95.2457 26.6397 95.5754 26.8995 95.9084 27.1243C96.5658 27.5697 97.3122 27.8826 98.1266 28.0523L98.2103 28.0703L98.2952 28.0819C98.5868 28.1212 98.8794 28.1413 99.1646 28.1413C99.8486 28.1413 100.512 28.0279 101.137 27.8031C101.969 27.504 102.699 27.065 103.303 26.4997L103.408 26.4011L103.5 26.2908C104.355 25.2685 105.004 24.1094 105.431 22.8432C105.848 21.6067 106.035 20.2833 105.987 18.9057L105.995 18.9036ZM7.45449 18.8198C7.44813 18.8209 7.44283 18.823 7.43647 18.8241C7.42799 18.8262 7.42056 18.8272 7.41208 18.8294C7.42587 18.8262 7.44071 18.823 7.45449 18.8198ZM6.82148 19.0669C6.79709 19.0722 6.7727 19.0775 6.74831 19.0828C6.73241 19.086 6.7165 19.0892 6.7006 19.0924C6.74089 19.0839 6.78225 19.0754 6.82148 19.0659V19.0669ZM6.78649 20.0903C6.84056 20.086 6.89358 20.0818 6.94766 20.0797C6.89146 20.0828 6.8342 20.086 6.77694 20.0913C6.78012 20.0913 6.78331 20.0913 6.78649 20.0913V20.0903ZM4.41241 6.47385C4.45058 6.46537 4.48875 6.45795 4.52692 6.45052C4.48769 6.45795 4.44846 6.46537 4.40922 6.47385C4.41028 6.47385 4.41135 6.47385 4.41241 6.47385ZM1.99909 25.9546C1.97046 25.855 1.94501 25.7542 1.92699 25.6503C1.94501 25.7532 1.97046 25.855 1.99909 25.9546ZM2.49957 26.9059C2.28644 26.6482 2.13163 26.3576 2.02878 26.0469C2.13163 26.3587 2.28644 26.6482 2.49957 26.9059C2.53562 26.9494 2.57273 26.9907 2.6109 27.0321C2.57273 26.9918 2.53562 26.9494 2.49957 26.9059ZM5.24689 27.9091C5.19281 27.9133 5.13873 27.9176 5.08572 27.9197C5.14191 27.9165 5.19917 27.9133 5.25643 27.908C5.25325 27.908 5.25007 27.908 5.24689 27.908V27.9091ZM9.03333 20.629C9.06302 20.6502 9.09271 20.6725 9.12133 20.6947C9.09165 20.6735 9.06302 20.6502 9.03227 20.629H9.03333ZM10.1265 1.97853C10.152 1.97323 10.1764 1.96687 10.2018 1.96156C10.2092 1.95944 10.2167 1.95838 10.2241 1.95732C10.1912 1.96474 10.1583 1.97111 10.1265 1.97853ZM8.80324 33.45C8.80324 33.5009 8.80642 33.5518 8.81066 33.6017C8.80642 33.5508 8.8043 33.5009 8.80324 33.45ZM8.84035 32.9898C8.85943 32.888 8.88488 32.7851 8.91669 32.6844C8.88382 32.7862 8.85837 32.888 8.84035 32.9898ZM9.21995 34.7385C9.27932 34.8244 9.34506 34.9061 9.41611 34.9845C9.34506 34.9061 9.27932 34.8233 9.21995 34.7385ZM11.3406 27.417L11.0904 28.1997L11.9397 25.5464L11.3406 27.4181V27.417ZM29.8508 15.5515C29.9993 15.5525 30.1371 15.5674 30.2654 15.5949C30.1371 15.5674 29.9993 15.5536 29.8508 15.5515ZM22.3585 30.8646C22.3585 30.8646 22.3606 30.872 22.3617 30.8752C22.3617 30.872 22.3596 30.8678 22.3585 30.8646ZM22.3617 30.8763C22.3617 30.8763 22.3596 30.871 22.3596 30.8678C22.3596 30.871 22.3617 30.8731 22.3617 30.8763ZM21.9026 32.52C21.9026 32.52 21.9089 32.5136 21.9121 32.5105C21.9121 32.5105 21.9079 32.5147 21.9047 32.5168C21.9047 32.5168 21.9026 32.5189 21.9015 32.52C21.9004 32.5211 21.8983 32.5232 21.8973 32.5242C21.8994 32.5232 21.9004 32.5211 21.9026 32.5189V32.52ZM22.192 32.1541C22.192 32.1541 22.1899 32.1584 22.1889 32.1605C22.1899 32.1584 22.191 32.1563 22.192 32.1541ZM22.1369 32.2422C22.1369 32.2422 22.1337 32.2475 22.1316 32.2496C22.1337 32.2464 22.1348 32.2443 22.1369 32.2411V32.2422ZM22.0881 32.3111C22.0881 32.3111 22.0839 32.3164 22.0818 32.3185C22.0839 32.3153 22.086 32.3132 22.0881 32.31V32.3111ZM22.034 32.379C22.034 32.379 22.0415 32.3705 22.0446 32.3662C22.0415 32.3705 22.0383 32.3747 22.034 32.379ZM21.9672 32.4553C21.9672 32.4553 21.9641 32.4585 21.963 32.4606C21.963 32.4606 21.9662 32.4574 21.9672 32.4553ZM16.9148 17.1231C16.9275 17.1019 16.9392 17.0807 16.9529 17.0605C16.9402 17.0817 16.9275 17.1029 16.9148 17.1231ZM17.0462 16.9195C17.0675 16.8887 17.0897 16.859 17.1109 16.8283C17.0887 16.859 17.0664 16.8887 17.0462 16.9195ZM17.1343 20.7647C17.1385 20.7679 17.1417 20.7711 17.1459 20.7732C17.1417 20.77 17.1385 20.7679 17.1343 20.7647ZM18.1416 21.19C18.1257 21.1879 18.1087 21.1847 18.0928 21.1815C18.1087 21.1847 18.1257 21.1868 18.1426 21.1889L18.1416 21.19ZM19.1372 21.7764C19.1701 21.7679 19.204 21.7605 19.238 21.7531C19.2464 21.751 19.2549 21.7499 19.2634 21.7478C19.221 21.7573 19.1786 21.7658 19.1372 21.7764ZM21.5569 32.7703C21.5484 32.7756 21.5389 32.7798 21.5293 32.7841C21.5389 32.7798 21.5484 32.7745 21.5569 32.7692V32.7703ZM21.6534 32.7141C21.6534 32.7141 21.6513 32.7151 21.6502 32.7162C21.6513 32.7162 21.6523 32.7151 21.6534 32.7141ZM21.7711 32.6314C21.7774 32.6271 21.7827 32.6229 21.7891 32.6176C21.7891 32.6176 21.7891 32.6176 21.788 32.6176C21.7827 32.6218 21.7774 32.6261 21.7721 32.6303L21.7711 32.6314ZM21.8008 32.608C21.8061 32.6038 21.8124 32.5995 21.8177 32.5942C21.8124 32.5985 21.8061 32.6027 21.8008 32.608ZM23.0085 32.0343C22.9841 32.1107 22.9565 32.1838 22.9258 32.256C22.9565 32.1838 22.9841 32.1096 23.0085 32.0343ZM23.1188 29.03C23.1474 29.0226 23.176 29.0173 23.2036 29.0109C23.176 29.0173 23.1474 29.0236 23.1188 29.03ZM30.9801 25.82C30.9801 25.82 30.9748 25.82 30.9726 25.82C30.9832 25.82 30.9928 25.82 31.0023 25.82C30.9949 25.82 30.9875 25.82 30.9801 25.82ZM32.3023 12.8367C32.8399 13.088 33.2884 13.4581 33.6468 13.948C33.6977 14.017 33.7454 14.088 33.791 14.1591C33.7443 14.088 33.6966 14.017 33.6468 13.948C33.2884 13.4581 32.8399 13.088 32.3023 12.8367ZM40.2717 12.1028C40.3035 12.1028 40.3364 12.1028 40.3682 12.1039C40.2049 12.1028 40.0438 12.1039 39.8826 12.1081C40.012 12.1049 40.1413 12.1028 40.2717 12.1028ZM40.1244 25.7807C40.1106 25.7807 40.0968 25.7797 40.083 25.7797C40.1106 25.7797 40.1381 25.7797 40.1657 25.7797C40.1519 25.7797 40.1381 25.7818 40.1233 25.7818L40.1244 25.7807ZM39.2824 21.1815C39.1266 20.6258 39.0312 20.0553 38.9962 19.4699C38.9845 18.8485 38.9993 18.2482 39.0407 17.6682C39.082 17.0891 39.1754 16.6194 39.3185 16.2609C39.3853 16.0934 39.4648 15.9502 39.556 15.8314C39.4648 15.9491 39.3864 16.0923 39.3185 16.2609C39.1754 16.6194 39.082 17.0881 39.0407 17.6682C38.9983 18.2482 38.9834 18.8485 38.9962 19.4699C39.0322 20.0553 39.1276 20.6258 39.2824 21.1815ZM40.9673 12.1198C40.8019 12.1113 40.6376 12.1081 40.4743 12.1049C40.6376 12.1071 40.8019 12.1113 40.9673 12.1198C41.7679 12.2396 42.4253 12.562 42.9385 13.088C43.2449 13.5069 43.5079 13.9533 43.7284 14.4274C43.5068 13.9544 43.2449 13.5079 42.9385 13.088C42.4242 12.562 41.7668 12.2396 40.9673 12.1198ZM42.6522 24.7754C43.1187 24.2165 43.5026 23.61 43.8069 22.9588C43.5026 23.611 43.1187 24.2176 42.6522 24.7754ZM50.2982 12.1028C50.33 12.1028 50.3629 12.1028 50.3947 12.1039C50.2314 12.1028 50.0703 12.1039 49.9091 12.1081C50.0384 12.1049 50.1678 12.1028 50.2982 12.1028ZM50.1508 25.7807C50.1371 25.7807 50.1233 25.7797 50.1095 25.7797C50.1371 25.7797 50.1646 25.7797 50.1922 25.7797C50.1784 25.7797 50.1646 25.7818 50.1498 25.7818L50.1508 25.7807ZM49.3089 21.1815C49.1531 20.6258 49.0576 20.0553 49.0226 19.4699C49.011 18.8485 49.0258 18.2482 49.0672 17.6682C49.1085 17.0891 49.2018 16.6194 49.345 16.2609C49.4118 16.0934 49.4913 15.9502 49.5825 15.8314C49.4913 15.9491 49.4129 16.0923 49.345 16.2609C49.2018 16.6194 49.1085 17.0881 49.0672 17.6682C49.0248 18.2482 49.0099 18.8485 49.0226 19.4699C49.0587 20.0553 49.1541 20.6258 49.3089 21.1815ZM53.1844 24.102C53.0275 24.3332 52.86 24.558 52.6776 24.7754C52.8589 24.558 53.0275 24.3332 53.1844 24.102ZM53.4061 13.7635C53.2703 13.5313 53.124 13.3064 52.965 13.0891C52.4507 12.5631 51.7933 12.2407 50.9938 12.1208C50.8284 12.1124 50.664 12.1092 50.5008 12.106C50.664 12.1081 50.8284 12.1124 50.9938 12.1208C51.7943 12.2407 52.4518 12.5631 52.965 13.0891C53.124 13.3064 53.2703 13.5323 53.4061 13.7635ZM57.57 12.1664C57.6262 12.1633 57.6834 12.1611 57.7396 12.1611C57.7598 12.1611 57.7789 12.1622 57.799 12.1633C57.7227 12.1611 57.6463 12.1633 57.57 12.1675V12.1664ZM58.7925 25.8062C58.9495 25.5262 59.0767 23.9164 59.1743 20.9747C59.0767 23.9154 58.9495 25.5262 58.7925 25.8062ZM61.138 25.7786C61.1306 25.7786 61.1231 25.7765 61.1168 25.7754C61.1263 25.7765 61.1359 25.7786 61.1454 25.7786C61.1433 25.7786 61.1401 25.7786 61.138 25.7786ZM61.9513 25.8465C61.8834 25.8465 61.8145 25.8444 61.7456 25.8412C61.8251 25.8444 61.9025 25.8454 61.9799 25.8454C61.9704 25.8454 61.9619 25.8465 61.9513 25.8465ZM61.209 15.2301C60.821 13.8027 60.5124 12.9565 60.2855 12.6935C59.9271 12.4782 59.2814 12.3234 58.3504 12.228C58.2698 12.2099 58.1892 12.1972 58.1097 12.1866C58.1903 12.1972 58.2709 12.211 58.3504 12.228C59.2824 12.3234 59.9271 12.4793 60.2855 12.6935C60.5124 12.9565 60.8199 13.8017 61.209 15.2301ZM65.0527 20.9747C64.6827 21.787 64.3264 22.7584 63.986 23.8878C63.8556 24.3205 63.7422 24.6704 63.6457 24.9387C63.7422 24.6704 63.8556 24.3194 63.986 23.8878C64.3264 22.7584 64.6816 21.7881 65.0527 20.9747ZM66.8479 25.8624C66.8235 25.8624 66.7991 25.8613 66.7737 25.8613C66.8267 25.8613 66.8807 25.8613 66.9338 25.8613C66.9051 25.8613 66.8765 25.8635 66.8468 25.8635L66.8479 25.8624ZM67.5032 12.3096C67.4873 12.3064 67.4714 12.3011 67.4544 12.3001C67.4714 12.3022 67.4862 12.3075 67.5032 12.3096ZM76.8076 12.1198C76.8224 12.1198 76.8373 12.1208 76.8521 12.1219C76.8288 12.1219 76.8054 12.1198 76.7821 12.1198C76.7906 12.1198 76.7991 12.1198 76.8076 12.1198ZM75.7557 21.6566C76.218 21.5442 76.7005 21.4614 77.2031 21.4127C76.7005 21.4614 76.2191 21.5442 75.7557 21.6566ZM80.4795 12.2248C80.8877 12.1781 81.4009 12.1421 82.017 12.1134C81.4009 12.141 80.8877 12.1781 80.4795 12.2248ZM85.9953 12.2269V12.2248C86.025 12.2173 86.0547 12.2089 86.0844 12.2025C86.0547 12.2099 86.025 12.2195 85.9953 12.2269ZM86.8447 12.0901C86.938 12.0848 87.0313 12.0816 87.1256 12.0816C87.1447 12.0816 87.1649 12.0816 87.184 12.0827C87.0705 12.0816 86.957 12.0827 86.8447 12.0901ZM89.4064 15.0149C89.1615 13.9692 88.889 13.1951 88.591 12.6935C88.4479 12.5143 88.2379 12.3351 87.9633 12.1558C87.9241 12.1484 87.8848 12.1431 87.8456 12.1378C87.8848 12.1431 87.9241 12.1495 87.9633 12.1558C88.2379 12.3351 88.4468 12.5143 88.591 12.6935C88.889 13.1951 89.1615 13.9692 89.4064 15.0149ZM91.6278 11.6055C91.666 11.6033 91.7031 11.6012 91.7423 11.6012C91.7572 11.6012 91.772 11.6012 91.7869 11.6023C91.7328 11.6023 91.6798 11.6023 91.6278 11.6055ZM93.4007 12.8759C93.3296 12.6277 93.2374 12.387 93.125 12.1558C92.8504 11.8218 92.492 11.6426 92.0498 11.6182C91.9767 11.6097 91.9056 11.6065 91.8346 11.6033C91.9046 11.6055 91.9767 11.6097 92.0498 11.6182C92.492 11.6426 92.8504 11.8218 93.125 12.1558C93.2374 12.387 93.3286 12.6277 93.4007 12.8759ZM99.3195 12.1028C99.3513 12.1028 99.3841 12.1028 99.4159 12.1039C99.2527 12.1028 99.0915 12.1039 98.9303 12.1081C99.0597 12.1049 99.189 12.1028 99.3195 12.1028ZM99.1731 25.7807C99.1593 25.7807 99.1456 25.7797 99.1318 25.7797C99.1593 25.7797 99.1869 25.7797 99.2145 25.7797C99.2007 25.7797 99.1869 25.7818 99.1721 25.7818L99.1731 25.7807ZM98.3302 21.1815C98.1743 20.6258 98.0789 20.0553 98.0439 19.4699C98.0322 18.8485 98.0471 18.2482 98.0884 17.6682C98.1298 17.0891 98.2231 16.6194 98.3662 16.2609C98.433 16.0934 98.5125 15.9502 98.6037 15.8314C98.5125 15.9491 98.4341 16.0923 98.3662 16.2609C98.2231 16.6194 98.1298 17.0881 98.0884 17.6682C98.046 18.2482 98.0312 18.8485 98.0439 19.4699C98.0799 20.0553 98.1754 20.6258 98.3302 21.1815ZM103.206 22.0861C102.87 23.0776 102.369 23.9748 101.7 24.7744C102.369 23.9737 102.87 23.0776 103.206 22.0861C103.54 21.0945 103.684 20.0372 103.636 18.9131C103.672 17.8262 103.552 16.7837 103.278 15.7858C103.003 14.7879 102.573 13.8886 101.987 13.088C101.473 12.562 100.817 12.2396 100.016 12.1198C99.8507 12.1113 99.6863 12.1081 99.523 12.1049C99.6863 12.1071 99.8507 12.1113 100.016 12.1198C100.817 12.2396 101.474 12.562 101.987 13.088C102.573 13.8886 103.003 14.7879 103.278 15.7858C103.552 16.7837 103.672 17.8262 103.636 18.9131C103.684 20.0362 103.541 21.0945 103.206 22.0861Z" fill="url(#paint0_linear_17053_1308)"/>
<path d="M21.9098 32.5107C21.9098 32.5107 21.9042 32.5154 21.9023 32.5182C21.9023 32.5182 21.9033 32.5173 21.9042 32.5164C21.9061 32.5145 21.9079 32.5126 21.9107 32.5107H21.9098Z" fill="url(#paint1_linear_17053_1308)"/>
<path d="M30.9745 26.4641C30.7465 26.4641 30.5058 26.4503 30.2588 26.4216L26.9558 26.3124L26.8848 26.2838C26.3154 26.0505 25.9008 25.6433 25.6527 25.0749L25.6357 25.0356L25.6273 24.9943C25.4438 24.1363 25.3261 23.008 25.2773 21.64V21.6061L25.2805 21.5721C25.3972 20.6368 25.4926 19.1468 25.5626 17.1447C25.3685 15.5667 25.2932 14.5921 25.3325 14.1658L25.3399 14.0842L25.377 14.011C25.6898 13.3991 26.1405 12.9283 26.7162 12.6133L26.7523 12.5931L26.7915 12.5804C27.3047 12.4182 27.9292 12.2941 28.646 12.2135C29.3522 12.134 30.0488 12.0947 30.719 12.0947H30.7624L30.8059 12.1032C31.3499 12.2167 31.9108 12.4086 32.4759 12.6716C33.0761 12.9516 33.584 13.3705 33.9827 13.9166C34.3739 14.4511 34.6475 15.0556 34.7981 15.713C34.9454 16.361 34.9751 17.0704 34.8861 17.8202L34.8829 17.8467L34.8765 17.8732C34.7238 18.4851 34.2106 19.167 33.3147 19.9475C33.8883 20.2667 34.3135 20.6601 34.5817 21.1246L34.5955 21.1479L34.6061 21.1734C34.8712 21.8097 34.9603 22.5796 34.8691 23.4587L34.8638 23.5149L34.8437 23.5679C34.5605 24.3018 34.1004 24.99 33.4758 25.6146L33.4652 25.6252L33.4536 25.6358C32.8184 26.1841 31.9839 26.4619 30.9756 26.4619L30.9745 26.4641ZM30.7084 22.6474C30.7402 22.5658 30.7508 22.4566 30.7179 22.3028C30.6744 22.1162 30.5589 21.9656 30.3553 21.8351C30.2832 21.8023 30.2036 21.7747 30.1167 21.7524L30.7073 22.6464L30.7084 22.6474ZM29.7689 18.0238L29.7933 18.0185C30.0722 17.8096 30.281 17.5561 30.4295 17.2475C30.4549 16.9008 30.4199 16.5731 30.3256 16.2698C30.1835 16.2189 30.0138 16.1924 29.8219 16.1924C29.7891 16.1924 29.7551 16.1924 29.7201 16.1945L29.7678 18.0227L29.7689 18.0238Z" fill="black"/>
<path d="M30.7194 12.5188C31.2326 12.6259 31.7586 12.8051 32.2961 13.0564C32.8337 13.3078 33.2823 13.6779 33.6406 14.1678C33.999 14.6578 34.2472 15.205 34.3839 15.8084C34.5207 16.4118 34.5483 17.0661 34.4645 17.7713C34.3087 18.3927 33.664 19.152 32.5294 20.0481C33.3416 20.3705 33.9036 20.801 34.2143 21.3387C34.4529 21.9124 34.5303 22.606 34.4476 23.4183C34.1846 24.0991 33.7605 24.7333 33.1752 25.3186C32.6164 25.8001 31.8826 26.0408 30.9739 26.0408C30.7555 26.0408 30.5275 26.027 30.2889 25.9995L27.0454 25.8923C26.5799 25.7015 26.2448 25.3727 26.0413 24.9061C25.8621 24.0694 25.7486 22.9761 25.7009 21.6261C25.8196 20.6706 25.9161 19.17 25.9872 17.1276C25.7963 15.574 25.7179 14.6005 25.7539 14.206C26.0285 13.6683 26.4166 13.2622 26.9192 12.9875C27.4091 12.8327 28.0007 12.716 28.6931 12.6376C29.3855 12.5601 30.061 12.5209 30.7184 12.5209M29.358 18.5412L29.9677 18.416C30.3621 18.1414 30.6548 17.7883 30.8456 17.3588C30.8933 16.8572 30.8339 16.3906 30.6664 15.9611C30.4353 15.8338 30.1543 15.7702 29.8224 15.7702C29.657 15.7702 29.4778 15.7861 29.2869 15.8179L29.323 17.1976L29.359 18.5422M30.6123 23.273L30.8456 23.1479C31.1202 22.9209 31.2157 22.6102 31.1319 22.2157C31.0598 21.905 30.8689 21.6547 30.5583 21.4628C30.2783 21.3281 29.9221 21.2613 29.4894 21.2613C29.4237 21.2613 29.3558 21.2623 29.2859 21.2655L30.6123 23.273ZM30.8074 11.6704H30.7194C30.0345 11.6704 29.3209 11.7118 28.5998 11.7924C27.8555 11.8761 27.2034 12.0055 26.6637 12.1763L26.5852 12.2017L26.5131 12.242C25.861 12.5994 25.352 13.1296 25 13.8189L24.9258 13.9653L24.9109 14.1286C24.8844 14.4181 24.8802 15.048 25.1389 17.1647C25.0689 19.1372 24.9756 20.6027 24.86 21.5222L24.8516 21.589L24.8537 21.6568C24.9025 23.0503 25.0233 24.203 25.2121 25.0853L25.2301 25.168L25.264 25.2465C25.5535 25.9104 26.0582 26.4056 26.7241 26.6782L26.8651 26.7365L27.0178 26.7418L30.2274 26.8478C30.484 26.8765 30.7353 26.8913 30.9739 26.8913C32.0873 26.8913 33.014 26.5785 33.7287 25.9623L33.752 25.9422L33.7742 25.9199C34.4412 25.2529 34.9332 24.5148 35.2386 23.7258L35.2799 23.6198L35.2916 23.5063C35.3891 22.5551 35.2905 21.7162 34.9979 21.0142L34.9767 20.9633L34.9491 20.9156C34.7254 20.5285 34.4104 20.186 34.0086 19.8912C34.7254 19.1997 35.1389 18.5783 35.2884 17.9791L35.3011 17.9272L35.3075 17.8731C35.4019 17.0756 35.37 16.3174 35.2121 15.6228C35.0488 14.908 34.7508 14.2516 34.3256 13.6705C33.8835 13.066 33.3215 12.6015 32.6556 12.2908C32.0618 12.014 31.4691 11.8125 30.8933 11.6916L30.8074 11.6736V11.6704Z" fill="black"/>
<path d="M40.1186 26.4253C39.9193 26.4253 39.7136 26.4115 39.5068 26.3829L39.492 26.3808L39.4771 26.3776C38.9109 26.2588 38.3956 26.0446 37.946 25.7402C37.5208 25.4529 37.0956 25.0976 36.6831 24.6851L36.6545 24.6564L36.6322 24.6236C36.0183 23.7222 35.5931 22.737 35.3673 21.6967C35.1457 20.6765 35.0587 19.5524 35.1064 18.3541C35.1064 17.3944 35.2199 16.4611 35.4415 15.5799C35.6695 14.6743 36.0745 13.8354 36.645 13.0867L36.6577 13.0698L36.6725 13.0539C37.2547 12.4314 37.9555 12.0697 38.754 11.9807C39.246 11.9255 39.7549 11.8979 40.2649 11.8979C40.5003 11.8979 40.741 11.9043 40.9807 11.916H41.0019L41.0231 11.9202C41.9138 12.0538 42.6581 12.4208 43.2349 13.0114L43.2561 13.0326L43.2742 13.057C43.887 13.8959 44.344 14.8492 44.6314 15.8927C44.9145 16.9224 45.0407 18.0115 45.0057 19.1314C45.0534 20.2958 44.9007 21.4093 44.5529 22.4411C44.203 23.4783 43.6707 24.4295 42.9709 25.2662L42.9539 25.2864L42.9349 25.3044C42.5234 25.6893 42.0187 25.9905 41.4355 26.2005C41.022 26.3489 40.5788 26.4253 40.1176 26.4253H40.1186ZM39.4146 19.6722C39.4485 20.2226 39.5397 20.7656 39.686 21.2873C39.8122 21.7391 39.9649 22.1771 40.1409 22.5928C40.3848 22.0975 40.5427 21.5737 40.6138 21.0339C40.6944 20.4114 40.7527 19.7475 40.7887 19.0582C40.7304 18.5471 40.6573 18.0137 40.5714 17.4707C40.5003 17.0232 40.3922 16.6245 40.2469 16.2819L39.9818 16.2088C39.8758 16.3053 39.7846 16.4495 39.7083 16.6393C39.5821 16.9553 39.4983 17.3859 39.4601 17.9193C39.4199 18.4803 39.405 19.0699 39.4167 19.6733L39.4146 19.6722Z" fill="black"/>
<path d="M40.2652 12.3232C40.4953 12.3232 40.7265 12.3285 40.9608 12.3401C41.7614 12.46 42.4188 12.7823 42.932 13.3083C43.5173 14.109 43.9478 15.0083 44.2224 16.0062C44.497 17.0041 44.6168 18.0465 44.5808 19.1335C44.6285 20.2565 44.4854 21.3149 44.1503 22.3064C43.8152 23.2979 43.3137 24.1951 42.6446 24.9947C42.2746 25.3415 41.8229 25.6108 41.2916 25.8017C40.9216 25.9343 40.5303 26.0011 40.1168 26.0011C39.9355 26.0011 39.751 25.9883 39.5612 25.9629C39.0469 25.8558 38.5867 25.6649 38.1817 25.3892C37.7756 25.1145 37.3748 24.7794 36.9803 24.3849C36.395 23.5249 35.9942 22.5991 35.78 21.6065C35.5648 20.615 35.481 19.5333 35.5287 18.3625C35.5287 17.4304 35.6358 16.5375 35.8511 15.6827C36.0663 14.828 36.4427 14.0485 36.9803 13.3433C37.4935 12.794 38.1 12.4801 38.7999 12.4027C39.2781 12.3497 39.7658 12.3232 40.2642 12.3232M40.19 23.0943L40.4413 22.9331C40.7519 22.3478 40.9492 21.7327 41.0329 21.0869C41.1167 20.441 41.1761 19.7602 41.2121 19.0433C41.1517 18.5173 41.0775 17.9712 40.9884 17.4028C40.8983 16.8354 40.7519 16.3423 40.5494 15.9245L39.9037 15.7453C39.6524 15.8768 39.4552 16.1217 39.312 16.4802C39.1689 16.8386 39.0756 17.3074 39.0342 17.8874C38.9918 18.4675 38.9769 19.0677 38.9897 19.6892C39.0257 20.2745 39.1211 20.8451 39.276 21.4008C39.4308 21.9564 39.6227 22.4856 39.8496 22.9872L40.19 23.0943ZM40.2663 11.4748C39.7404 11.4748 39.2155 11.5034 38.7087 11.5596C37.8053 11.6604 37.0164 12.0655 36.3632 12.7643L36.3346 12.7951L36.3091 12.829C35.7037 13.6233 35.2743 14.513 35.0325 15.4749C34.8024 16.3879 34.6858 17.353 34.6847 18.3445C34.6359 19.5757 34.7261 20.7337 34.9551 21.7857C35.1926 22.8801 35.639 23.9151 36.2837 24.8611L36.3282 24.9268L36.3844 24.983C36.816 25.4146 37.2613 25.7869 37.7098 26.0901C38.205 26.4253 38.7712 26.6617 39.3915 26.7911L39.4212 26.7975L39.452 26.8017C39.6778 26.8325 39.9026 26.8473 40.12 26.8473C40.63 26.8473 41.1209 26.7635 41.5811 26.5981C42.2194 26.369 42.7729 26.0371 43.2267 25.6129L43.2649 25.5779L43.2978 25.5376C44.0315 24.6596 44.5893 23.6638 44.9561 22.5758C45.3188 21.4983 45.4789 20.3392 45.4312 19.1282C45.4662 17.9723 45.3357 16.845 45.042 15.7792C44.7409 14.6869 44.2616 13.6859 43.6191 12.8057L43.583 12.7569L43.5406 12.7134C42.897 12.0549 42.072 11.6466 41.0881 11.4992L41.0456 11.4928L41.0032 11.4907C40.7572 11.479 40.5091 11.4727 40.2674 11.4727L40.2663 11.4748ZM39.8379 19.6542C39.8273 19.0667 39.8411 18.493 39.8814 17.9479C39.909 17.5608 39.9609 17.2374 40.0362 16.9828C40.0818 17.1557 40.12 17.3402 40.1507 17.5343C40.2334 18.0582 40.3045 18.5746 40.3617 19.0688C40.3267 19.7337 40.2695 20.3753 40.1921 20.9766C40.1772 21.09 40.1581 21.2024 40.1348 21.3149C40.121 21.2671 40.1073 21.2194 40.0935 21.1717C39.9567 20.6818 39.8708 20.1706 39.8379 19.6531V19.6542Z" fill="black"/>
<path d="M50.146 26.4253C49.9466 26.4253 49.7409 26.4115 49.5341 26.3829L49.5193 26.3808L49.5045 26.3776C48.9382 26.2588 48.4229 26.0446 47.9733 25.7402C47.5481 25.4529 47.123 25.0976 46.7105 24.6851L46.6819 24.6564L46.6596 24.6236C46.0457 23.7222 45.6205 22.737 45.3946 21.6967C45.173 20.6765 45.0861 19.5524 45.1338 18.3541C45.1338 17.3944 45.2472 16.4611 45.4688 15.5799C45.6968 14.6743 46.1019 13.8354 46.6723 13.0867L46.685 13.0698L46.6999 13.0539C47.282 12.4314 47.9829 12.0697 48.7813 11.9807C49.2733 11.9255 49.7823 11.8979 50.2923 11.8979C50.5277 11.8979 50.7684 11.9043 51.008 11.916H51.0292L51.0504 11.9202C51.9411 12.0528 52.6844 12.4208 53.2623 13.0114L53.2835 13.0326L53.3015 13.057C53.9144 13.8959 54.3703 14.8492 54.6577 15.8927C54.9408 16.9224 55.067 18.0126 55.032 19.1314C55.0797 20.2969 54.927 21.4103 54.5792 22.4411C54.2293 23.4783 53.697 24.4284 52.9972 25.2662L52.9802 25.2864L52.9611 25.3044C52.5497 25.6893 52.045 25.9905 51.4618 26.2005C51.0483 26.3489 50.6051 26.4253 50.1438 26.4253H50.146ZM49.4408 19.6722C49.4748 20.2226 49.566 20.7656 49.7123 21.2873C49.8385 21.7391 49.9912 22.1771 50.1672 22.5928C50.411 22.0975 50.5701 21.5737 50.6401 21.0339C50.7207 20.4114 50.779 19.7475 50.815 19.0582C50.7567 18.5471 50.6835 18.0137 50.5977 17.4707C50.5266 17.0243 50.4185 16.6245 50.2732 16.2819L50.0081 16.2088C49.9021 16.3053 49.8109 16.4495 49.7345 16.6393C49.6084 16.9553 49.5246 17.3859 49.4864 17.9193C49.4461 18.4803 49.4313 19.0699 49.443 19.6733L49.4408 19.6722Z" fill="black"/>
<path d="M50.2926 12.3232C50.5227 12.3232 50.7538 12.3285 50.9882 12.3401C51.7887 12.46 52.4461 12.7823 52.9593 13.3083C53.5446 14.109 53.9751 15.0083 54.2497 16.0062C54.5244 17.0041 54.6442 18.0465 54.6081 19.1335C54.6558 20.2565 54.5127 21.3149 54.1776 22.3064C53.8426 23.2979 53.341 24.1951 52.672 24.9947C52.3019 25.3415 51.8502 25.6108 51.319 25.8017C50.9489 25.9343 50.5577 26.0011 50.1441 26.0011C49.9628 26.0011 49.7783 25.9883 49.5885 25.9629C49.0743 25.8558 48.6141 25.6649 48.209 25.3892C47.8029 25.1145 47.4021 24.7794 47.0077 24.3849C46.4224 23.5249 46.0216 22.5991 45.8074 21.6065C45.5921 20.615 45.5084 19.5333 45.5561 18.3625C45.5561 17.4304 45.6632 16.5375 45.8784 15.6827C46.0937 14.828 46.4701 14.0485 47.0077 13.3433C47.5209 12.794 48.1274 12.4801 48.8272 12.4027C49.3054 12.3497 49.7932 12.3232 50.2915 12.3232M50.2184 23.0943L50.4697 22.9331C50.7803 22.3478 50.9776 21.7327 51.0613 21.0869C51.1451 20.441 51.2045 19.7602 51.2405 19.0433C51.1801 18.5173 51.1059 17.9712 51.0168 17.4028C50.9267 16.8354 50.7803 16.3423 50.5778 15.9245L49.9321 15.7453C49.6808 15.8768 49.4836 16.1217 49.3404 16.4802C49.1973 16.8386 49.104 17.3074 49.0626 17.8874C49.0202 18.4675 49.0053 19.0677 49.0181 19.6892C49.0541 20.2745 49.1495 20.8451 49.3044 21.4008C49.4592 21.9564 49.6511 22.4856 49.878 22.9872L50.2184 23.0943ZM50.2936 11.4748C49.7677 11.4748 49.2429 11.5034 48.736 11.5596C47.8326 11.6604 47.0437 12.0655 46.3906 12.7643L46.3619 12.7951L46.3365 12.829C45.731 13.6233 45.3016 14.513 45.0599 15.4749C44.8298 16.3879 44.7131 17.353 44.7121 18.3445C44.6633 19.5757 44.7534 20.7337 44.9825 21.7857C45.22 22.8801 45.6664 23.9151 46.311 24.8611L46.3556 24.9268L46.4118 24.983C46.8433 25.4146 47.2887 25.7869 47.7372 26.0901C48.2324 26.4253 48.7986 26.6617 49.4189 26.7911L49.4486 26.7975L49.4793 26.8017C49.7052 26.8325 49.93 26.8473 50.1473 26.8473C50.6573 26.8473 51.1483 26.7635 51.6085 26.5981C52.2468 26.369 52.8003 26.0371 53.2541 25.6129L53.2923 25.5779L53.3251 25.5376C54.0589 24.6596 54.6166 23.6638 54.9835 22.5758C55.3461 21.4994 55.5062 20.3392 55.4585 19.1282C55.4935 17.9723 55.362 16.845 55.0683 15.7792C54.7672 14.6869 54.289 13.6859 53.6454 12.8057L53.6093 12.7569L53.5669 12.7134C52.9233 12.0549 52.0983 11.6466 51.1143 11.4992L51.0719 11.4928L51.0295 11.4907C50.7835 11.479 50.5354 11.4727 50.2936 11.4727V11.4748ZM49.8653 19.6542C49.8547 19.0667 49.8685 18.493 49.9087 17.9489C49.9363 17.5619 49.9883 17.2384 50.0636 16.9839C50.1091 17.1568 50.1473 17.3413 50.1781 17.5354C50.2608 18.0603 50.3318 18.5757 50.3891 19.0699C50.3541 19.7348 50.2968 20.3763 50.2194 20.9776C50.2046 21.0911 50.1855 21.2035 50.1622 21.3159C50.1484 21.2682 50.1346 21.2205 50.1208 21.1728C49.984 20.6828 49.8981 20.1717 49.8653 19.6552V19.6542Z" fill="black"/>
<path d="M56.2724 26.5545C55.7953 26.4399 55.1527 26.2257 55.0891 25.6891L55.0859 25.6605L55.2832 15.3803C55.2089 14.3262 55.4093 13.3824 55.878 12.5754L55.9374 12.4736L56.0402 12.4163C56.5937 12.1109 57.1631 11.9561 57.7325 11.9561C57.9563 11.9561 58.1842 11.9804 58.409 12.0282C59.4004 12.1321 60.0833 12.3028 60.4957 12.5499L60.5541 12.5849L60.5986 12.6369C60.7863 12.8543 61.0704 13.358 61.6102 15.3389C61.7968 16.024 61.9696 16.6879 62.1276 17.3263C62.2368 16.8406 62.3598 16.3634 62.4966 15.8957C62.8211 14.7822 63.2473 13.762 63.7637 12.8628L63.7775 12.8384L63.7944 12.8161C64.0076 12.5372 64.2769 12.3537 64.5971 12.2689L64.6385 12.2583L67.4589 12.0929L67.495 12.0971C67.9287 12.1448 68.4917 12.4248 68.7144 13.4799C68.8575 14.1586 68.9296 14.7939 68.9296 15.3686L69.1279 25.0539L68.7462 26.2946L68.497 26.3434C67.9425 26.4516 67.3847 26.5067 66.8418 26.5067C66.4421 26.5067 66.0402 26.477 65.6479 26.4187L65.509 26.3986L65.1729 26.0624L65.1411 25.9871C65.0393 25.7496 64.8961 25.1822 64.7434 23.1238C64.6226 23.4749 64.5038 23.8439 64.3872 24.231C63.8814 25.9097 63.7054 26.1748 63.4201 26.2321C62.9684 26.4039 62.4733 26.4908 61.9463 26.4919C61.677 26.4919 61.3938 26.4686 61.1044 26.424C60.5944 26.4028 60.2572 25.8132 59.8691 24.2755C59.7599 23.8439 59.6432 23.4409 59.5192 23.0698C59.4831 23.8068 59.445 24.4123 59.4036 24.881C59.305 26.0041 59.2191 26.4643 58.7674 26.4951L56.3297 26.5693L56.2746 26.5566L56.2724 26.5545Z" fill="black"/>
<path d="M57.7337 12.3801C57.9362 12.3801 58.1398 12.4024 58.3434 12.4469C59.2754 12.5424 59.9201 12.6983 60.2785 12.9125C60.5054 13.1755 60.8129 14.0207 61.2021 15.4491C61.5901 16.8776 61.9157 18.1947 62.1786 19.4015C62.3462 18.2307 62.5879 17.1013 62.905 16.0133C63.2209 14.9263 63.6313 13.9464 64.1328 13.0737C64.2876 12.8711 64.4795 12.7396 64.7065 12.6792L67.4485 12.518C67.879 12.5657 68.1621 12.9156 68.2999 13.5668C68.4367 14.2179 68.5056 14.8181 68.5056 15.3685L68.7028 24.9944L68.4166 25.9265C67.8853 26.0294 67.3605 26.0814 66.842 26.0814C66.4613 26.0814 66.0838 26.0538 65.7106 25.9976L65.5314 25.8184C65.3522 25.4005 65.191 23.8586 65.0479 21.1937C64.6778 22.006 64.3216 22.9774 63.9812 24.1068C63.6408 25.2362 63.4171 25.8067 63.3089 25.8184C62.8933 25.9827 62.4395 26.0655 61.9464 26.0655C61.6888 26.0655 61.4194 26.0432 61.1406 25.9976C61.1384 25.9976 61.1353 25.9976 61.1331 25.9976C60.8723 25.9976 60.5881 25.3889 60.2806 24.1693C59.97 22.9392 59.5999 21.9466 59.1694 21.1937C59.0623 24.4323 58.9181 26.057 58.7389 26.0686L56.3733 26.1407C55.8241 26.0092 55.5367 25.8428 55.5134 25.6391L55.7106 15.3685C55.6385 14.3886 55.8177 13.5286 56.2482 12.7873C56.7413 12.5159 57.2364 12.3791 57.7358 12.3791M57.7337 11.5317C57.0922 11.5317 56.4539 11.7046 55.8368 12.045L55.6311 12.1585L55.5134 12.3621C55.0044 13.2391 54.7849 14.2582 54.8602 15.3908L54.6641 25.6243V25.6816L54.6694 25.7388C54.7743 26.6317 55.8283 26.8841 56.175 26.9669L56.2853 26.9934L56.3988 26.9902L58.7644 26.9181H58.7803L58.7962 26.917C59.2712 26.8852 59.5755 26.5511 59.6996 25.9233C59.725 25.7929 59.7494 25.6349 59.7727 25.4451C59.8342 25.6169 59.8947 25.7685 59.9562 25.9011C60.234 26.4971 60.6062 26.8152 61.061 26.8449C61.3643 26.8916 61.6622 26.9149 61.9475 26.9149C62.5243 26.9149 63.0693 26.8184 63.5687 26.6296C64.0363 26.4875 64.2293 25.9976 64.3481 25.6932C64.4021 25.5543 64.4615 25.3899 64.5273 25.1969C64.6068 25.7325 64.6821 25.9902 64.7531 26.1545L64.8178 26.3051L64.9334 26.4207L65.1126 26.5999L65.3108 26.7982L65.5876 26.8396C66.0011 26.9011 66.4242 26.9319 66.8441 26.9319C67.4145 26.9319 67.9988 26.8746 68.5809 26.7611L69.0803 26.6636L69.2298 26.1779L69.5161 25.2457L69.5564 25.1153L69.5532 24.9785L69.356 15.3611C69.356 14.7587 69.2797 14.097 69.1312 13.3939C68.8417 12.0217 68.0126 11.729 67.5439 11.677L67.4718 11.6685L67.3997 11.6728L64.6577 11.834L64.5729 11.8393L64.4912 11.8605C64.084 11.9676 63.7278 12.2094 63.4595 12.5604L63.4256 12.6049L63.398 12.6527C62.8859 13.5424 62.4607 14.5466 62.132 15.6389C62.0959 15.5032 62.0588 15.3664 62.0217 15.2285C61.465 13.1829 61.1639 12.641 60.9221 12.361L60.8331 12.2582L60.7164 12.1882C60.2467 11.9061 59.5342 11.7226 58.477 11.6102C58.231 11.5593 57.9818 11.5339 57.7348 11.5339L57.7337 11.5317Z" fill="black"/>
<path d="M71.6108 26.4084C70.8685 26.2101 70.367 25.9852 70.0743 25.7223L69.9789 25.6364L69.9471 25.5123C69.3872 23.3129 69.243 21.9544 69.4912 21.2365L69.5049 21.1972L69.5261 21.1612C69.5802 21.0679 69.6703 20.9141 73.9583 16.5089L71.6489 16.5831H71.6351C70.0595 16.5269 69.8039 16.3806 69.6502 16.2088L69.5686 16.1176L69.2208 14.1091V14.0847C69.19 13.565 69.2791 13.1409 69.4848 12.8259L69.5187 12.7739L69.5664 12.7336C70.1019 12.2798 70.7593 12.0295 71.5206 11.9881H71.5344L74.6179 12.0231L76.7682 11.916H76.8021C77.5348 11.916 78.1848 12.3837 78.7362 13.3052L78.7871 13.3901L78.7956 13.4876C78.821 13.7973 78.8009 14.529 78.7341 15.7242C78.6609 17.0232 78.4414 17.7454 78.0247 18.0413C77.1467 19.0169 75.798 20.2895 74.0071 21.8356C74.5139 21.7391 75.0123 21.6278 75.4969 21.5005C76.2094 21.3149 76.9771 21.2015 77.7798 21.1644L78.0088 21.1538L78.1435 21.3393C78.3767 21.6628 78.6927 22.3733 78.7436 24.8049L78.7468 24.9386L78.2972 25.613L78.1424 25.6544C76.5837 26.0722 75.5425 26.2928 74.9593 26.331L71.6733 26.4232L71.6139 26.4073L71.6108 26.4084Z" fill="black"/>
<path d="M76.8016 12.3388C77.3773 12.3388 77.9001 12.7333 78.3709 13.5223C78.3942 13.8086 78.374 14.535 78.3083 15.7005C78.2426 16.8659 78.0538 17.5383 77.7442 17.7175C76.7284 18.8532 75.0743 20.3877 72.7797 22.3241L73.4785 22.3602C74.2069 22.2404 74.9152 22.0908 75.6023 21.9116C76.2894 21.7324 77.0211 21.6253 77.7983 21.5892C78.109 22.0198 78.2818 23.0951 78.3178 24.8152L78.0315 25.2457C76.5142 25.6519 75.4804 25.8735 74.9311 25.9085L71.7226 25.9987C71.0535 25.8194 70.5997 25.6222 70.3601 25.4069C69.8341 23.3401 69.6793 21.9954 69.8946 21.374C69.9783 21.2308 71.6272 19.5097 74.841 16.2116L74.4466 16.0684L71.6505 16.1575C70.6347 16.1215 70.0738 16.0441 69.9656 15.9242L69.6433 14.0599C69.6189 13.6294 69.6846 13.2953 69.8405 13.0557C70.306 12.6612 70.8743 12.4459 71.5434 12.4098L74.6258 12.4459L76.7761 12.3388C76.7846 12.3388 76.7931 12.3388 76.8016 12.3388ZM76.8016 11.4904C76.7878 11.4904 76.7729 11.4904 76.7592 11.4904H76.7464H76.7337L74.6088 11.5965L71.5519 11.5604H71.5243L71.4967 11.5615C70.6421 11.6071 69.8999 11.8913 69.2912 12.4066L69.1958 12.4872L69.128 12.5922C68.8724 12.9846 68.7611 13.4936 68.795 14.1055L68.7982 14.1543L68.8067 14.2031L69.129 16.0674L69.1704 16.3081L69.3337 16.4894C69.6115 16.7991 70.008 16.9465 71.6197 17.0038H71.6484H71.677L72.9218 16.9635C69.3199 20.6698 69.2393 20.8098 69.1598 20.9445L69.1184 21.0155L69.0919 21.094C68.9032 21.6401 68.7833 22.6476 69.5372 25.6137L69.6009 25.8629L69.7917 26.0347C70.1395 26.3476 70.6824 26.5957 71.502 26.8152L71.6219 26.847L71.7459 26.8439L74.9545 26.7537H74.9704L74.9863 26.7527C75.5981 26.7124 76.6658 26.4875 78.251 26.0623L78.5596 25.9796L78.7367 25.7134L79.023 25.2829L79.1703 25.0612L79.165 24.795C79.1131 22.2732 78.7738 21.4896 78.4854 21.0898L78.2171 20.7175L77.759 20.7387C76.9829 20.7748 76.2364 20.8787 75.5387 21.0495C76.7136 19.9954 77.6403 19.0929 78.3083 18.3559C78.8194 17.9656 79.076 17.1671 79.1555 15.7461C79.2467 14.1257 79.234 13.6601 79.217 13.4501L79.2011 13.254L79.1004 13.0853C78.4673 12.0259 77.6944 11.4883 76.8026 11.4883L76.8016 11.4904Z" fill="black"/>
<path d="M79.1682 26.0846L79.1056 25.9033C78.953 25.4611 78.9052 24.9245 78.9583 24.2617L78.9604 24.2426C79.112 23.0241 79.1894 20.708 79.1905 17.3601C79.1205 16.6051 79.0463 15.8469 78.9689 15.1088C78.8893 14.3527 78.8671 13.5414 78.9042 12.6983L78.9127 12.5032L79.0664 12.3823C79.3368 12.1702 79.9741 11.9624 82.7744 11.8796L82.873 11.8765L84.0404 12.4067L83.7329 14.5626C83.875 17.3103 83.8687 19.0505 83.7117 19.8798L83.6057 22.6254C83.5696 23.2086 83.5527 23.7876 83.5527 24.3571C83.5527 25.0178 83.3724 25.6286 83.0183 26.1748L82.8995 26.3582L80.1331 26.4791L79.1703 26.0836L79.1682 26.0846Z" fill="black"/>
<path d="M82.7854 12.3039L83.5743 12.6623L83.306 14.5446C83.4492 17.2934 83.4428 19.0559 83.288 19.8321L83.1809 22.6106C83.1449 23.1959 83.1268 23.7792 83.1268 24.3582C83.1268 24.9372 82.971 25.4664 82.6613 25.9447L80.2056 26.0518L79.5069 25.7655C79.3754 25.3826 79.333 24.8937 79.3817 24.2956C79.5365 23.0528 79.615 20.7346 79.615 17.3411C79.5429 16.5648 79.4687 15.8055 79.3913 15.0643C79.3139 14.323 79.2927 13.5404 79.3287 12.7164C79.6033 12.5011 80.7559 12.3643 82.7875 12.3039M82.9572 11.4502L82.76 11.4555C79.6882 11.5467 79.1357 11.7874 78.8028 12.0472L78.4953 12.288L78.4783 12.6782C78.4412 13.5414 78.4635 14.3739 78.5451 15.1523C78.6215 15.8808 78.6957 16.6306 78.7646 17.3793C78.7646 20.6996 78.6883 22.9902 78.5377 24.1896L78.5356 24.2087V24.2278C78.4762 24.95 78.5314 25.5438 78.7031 26.0422L78.8282 26.4049L79.1835 26.5502L79.8822 26.8365L80.0551 26.9076L80.2417 26.8991L82.6974 26.792L83.1332 26.7729L83.3707 26.407C83.7704 25.7909 83.974 25.1016 83.974 24.3582C83.974 23.7983 83.9921 23.2278 84.026 22.6625V22.653V22.6434L84.131 19.9276C84.2868 19.0559 84.2953 17.305 84.1553 14.5828L84.4119 12.7821L84.5021 12.1533L83.9231 11.8903L83.1343 11.5319L82.9551 11.4502H82.9572Z" fill="black"/>
<path d="M84.3543 26.4705L84.3129 26.1184C84.2514 25.5892 84.2058 24.8151 84.1761 23.7514C84.1464 22.7196 84.1136 21.8299 84.0775 21.1066V21.0896L84.0234 15.4077C84.0234 14.3737 84.2313 13.4352 84.6416 12.6144L84.7052 12.4871L84.8325 12.4246C85.5694 12.0608 86.3392 11.8763 87.1207 11.8763C87.4207 11.8763 87.7272 11.9039 88.0326 11.958L88.1174 11.9728L88.1895 12.0205C88.5055 12.2263 88.743 12.432 88.9158 12.6483L88.9338 12.6717L88.9487 12.6971C89.1597 13.0513 89.3516 13.5115 89.5319 14.0916L89.4735 13.6589C89.4004 13.2167 89.4555 12.5688 90.1331 11.976C90.572 11.5921 91.1118 11.397 91.7363 11.397C91.8466 11.397 91.9621 11.4033 92.0777 11.415C92.6354 11.4479 93.0956 11.6812 93.4455 12.1064L93.4774 12.1446L93.4996 12.1891C93.7594 12.7226 93.9216 13.3058 93.9799 13.9209C94.0351 14.501 94.0563 15.046 94.0446 15.5402V19.4512V19.465C93.9746 20.5371 93.8994 21.6528 93.8209 22.7832C93.7403 23.9359 93.4667 25.0728 93.0097 26.1629L92.9037 26.4143L90.0737 26.497L89.3368 26.076L89.2827 25.9339C88.989 25.1618 88.7652 24.3782 88.6168 23.604C88.6126 23.5839 88.6094 23.5637 88.6051 23.5436L88.6783 26.1693L87.0751 26.6412L84.3532 26.4705H84.3543Z" fill="black"/>
<path d="M91.7396 11.8201C91.8393 11.8201 91.9411 11.8254 92.0471 11.8371C92.4893 11.8615 92.8477 12.0407 93.1223 12.3748C93.3609 12.8647 93.5072 13.3939 93.5613 13.9612C93.6153 14.5286 93.6355 15.0514 93.6238 15.5297V19.4375C93.5517 20.5372 93.4775 21.6422 93.4001 22.7536C93.3227 23.8649 93.0629 24.9466 92.6207 25.9975L90.183 26.0696L89.6815 25.7833C89.3952 25.0304 89.18 24.2775 89.0358 23.5245C88.8926 22.7716 88.653 22.0908 88.319 21.481L88.1758 23.2732L88.2479 25.8544L87.0296 26.2128L84.7361 26.0696C84.6757 25.5564 84.6311 24.7791 84.6015 23.7398C84.5718 22.7005 84.5389 21.8161 84.5028 21.0865L84.4488 15.4045C84.4488 14.4363 84.6396 13.5699 85.0224 12.8053C85.7042 12.4691 86.404 12.3005 87.1229 12.3005C87.3997 12.3005 87.6785 12.3249 87.9616 12.3748C88.2363 12.554 88.4452 12.7332 88.5894 12.9124C88.8873 13.414 89.1598 14.1882 89.4048 15.2338C89.6497 16.2794 89.9095 17.2858 90.1841 18.254L90.2382 16.1034L89.8978 13.5943C89.814 13.1044 89.9869 12.6717 90.4174 12.2952C90.7789 11.9792 91.22 11.8212 91.7417 11.8212M91.7396 10.9718C91.009 10.9718 90.376 11.2019 89.8575 11.6558C89.5808 11.8976 89.3899 12.1489 89.2616 12.396L89.251 12.3822C89.0495 12.1298 88.7792 11.8954 88.425 11.6643L88.2797 11.5699L88.109 11.5402C87.7793 11.4819 87.4484 11.4522 87.124 11.4522C86.2768 11.4522 85.4434 11.6515 84.647 12.045L84.3915 12.1712L84.2643 12.4257C83.8242 13.3059 83.6016 14.308 83.6016 15.4045V15.413L83.6556 21.095V21.112V21.1289C83.6906 21.8469 83.7235 22.7334 83.7532 23.7642C83.7839 24.8406 83.8295 25.6264 83.8932 26.1683L83.9759 26.8724L84.6831 26.917L86.9766 27.0601L87.1261 27.0697L87.2693 27.0273L88.4876 26.6688L89.1142 26.4843V26.4344L89.2605 26.5193L89.7621 26.8056L89.9688 26.9244L90.2074 26.917L92.6451 26.8448L93.1912 26.8289L93.4022 26.3252C93.8783 25.1926 94.1625 24.0113 94.2462 22.8119C94.3258 21.674 94.401 20.5573 94.47 19.4916L94.4721 19.464V15.5392C94.4837 15.0312 94.4615 14.4734 94.4053 13.8806C94.3417 13.2147 94.1667 12.5826 93.8847 12.0025L93.8412 11.9124L93.7776 11.835C93.3577 11.3238 92.784 11.0322 92.1171 10.9909C91.9898 10.9781 91.8626 10.9707 91.7407 10.9707L91.7396 10.9718Z" fill="black"/>
<path d="M99.1616 26.4253C98.9622 26.4253 98.7565 26.4115 98.5498 26.3829L98.5349 26.3808L98.5201 26.3776C97.9539 26.2588 97.4385 26.0446 96.989 25.7402C96.5638 25.4529 96.1386 25.0976 95.7261 24.6851L95.6975 24.6564L95.6752 24.6236C95.0613 23.7222 94.6361 22.737 94.4102 21.6967C94.1886 20.6765 94.1017 19.5524 94.1494 18.3541C94.1494 17.3944 94.2629 16.4611 94.4845 15.5799C94.7124 14.6732 95.1175 13.8344 95.6879 13.0867L95.7007 13.0698L95.7155 13.0539C96.2976 12.4314 96.9985 12.0697 97.7969 11.9807C98.2889 11.9255 98.7979 11.8979 99.309 11.8979C99.5444 11.8979 99.7851 11.9043 100.025 11.916H100.046L100.067 11.9202C100.958 12.0538 101.701 12.4208 102.279 13.0114L102.3 13.0326L102.318 13.057C102.931 13.8959 103.387 14.8492 103.675 15.8927C103.959 16.9224 104.085 18.0115 104.05 19.1314C104.097 20.2969 103.945 21.4103 103.597 22.4411C103.247 23.4783 102.715 24.4295 102.015 25.2662L101.998 25.2864L101.979 25.3044C101.567 25.6893 101.063 25.9905 100.48 26.2005C100.066 26.3489 99.6228 26.4253 99.1616 26.4253ZM98.4565 19.6722C98.4904 20.2226 98.5816 20.7656 98.7279 21.2873C98.8541 21.7391 99.0068 22.1771 99.1828 22.5928C99.4267 22.0965 99.5847 21.5737 99.6557 21.0339C99.7363 20.4103 99.7946 19.7465 99.8307 19.0582C99.7713 18.546 99.6981 18.0115 99.6133 17.4707C99.5422 17.0243 99.4341 16.6245 99.2888 16.2819L99.0237 16.2088C98.9177 16.3053 98.8265 16.4495 98.7502 16.6393C98.624 16.9553 98.5402 17.3859 98.501 17.9193C98.4607 18.4803 98.4459 19.071 98.4575 19.6733L98.4565 19.6722Z" fill="black"/>
<path d="M99.3113 12.323C99.5414 12.323 99.7726 12.3283 100.007 12.34C100.807 12.4598 101.465 12.7822 101.978 13.3082C102.563 14.1088 102.994 15.0081 103.268 16.006C103.543 17.0039 103.663 18.0463 103.627 19.1333C103.675 20.2563 103.531 21.3147 103.196 22.3062C102.861 23.2978 102.36 24.1949 101.691 24.9945C101.321 25.3413 100.869 25.6107 100.338 25.8015C99.9677 25.9341 99.5764 26.0009 99.1629 26.0009C98.9815 26.0009 98.7971 25.9882 98.6073 25.9627C98.093 25.8556 97.6328 25.6647 97.2278 25.389C96.8217 25.1144 96.4208 24.7792 96.0275 24.3847C95.4422 23.5247 95.0414 22.5989 94.8261 21.6063C94.6109 20.6148 94.5271 19.5331 94.5748 18.3623C94.5748 17.4302 94.6819 16.5373 94.8972 15.6825C95.1124 14.8278 95.4888 14.0484 96.0264 13.3432C96.5396 12.7938 97.1461 12.4799 97.8459 12.4025C98.3241 12.3495 98.8119 12.323 99.3103 12.323M99.236 23.0942L99.4873 22.933C99.798 22.3476 99.9952 21.7325 100.079 21.0867C100.163 20.4409 100.222 19.76 100.258 19.0432C100.198 18.5172 100.124 17.971 100.034 17.4026C99.9443 16.8353 99.798 16.3422 99.5955 15.9243L98.9497 15.7451C98.6984 15.8766 98.5012 16.1216 98.3581 16.48C98.2149 16.8385 98.1216 17.3072 98.0803 17.8873C98.0379 18.4673 98.023 19.0676 98.0357 19.689C98.0718 20.2744 98.1672 20.8449 98.322 21.4006C98.4768 21.9563 98.6688 22.4854 98.8957 22.987L99.236 23.0942ZM99.3113 11.4746C98.7854 11.4746 98.2605 11.5032 97.7537 11.5594C96.8503 11.6602 96.0614 12.0653 95.4082 12.7641L95.3796 12.7949L95.3542 12.8288C94.7487 13.6221 94.3193 14.5129 94.0765 15.4758C93.8464 16.3888 93.7297 17.3538 93.7276 18.3454C93.6788 19.5766 93.77 20.7336 93.998 21.7866C94.2355 22.881 94.6819 23.916 95.3266 24.863L95.3711 24.9288L95.4273 24.985C95.8589 25.4166 96.3042 25.7888 96.7527 26.0921C97.2479 26.4272 97.8141 26.6637 98.4344 26.7931L98.4641 26.7994L98.4949 26.8037C98.7207 26.8344 98.9455 26.8493 99.1629 26.8493C99.6729 26.8493 100.164 26.7655 100.624 26.6001C101.262 26.371 101.816 26.0391 102.27 25.6149L102.308 25.5799L102.341 25.5396C103.074 24.6615 103.632 23.6658 103.999 22.5777C104.362 21.5013 104.522 20.3412 104.474 19.1301C104.509 17.9742 104.378 16.8469 104.085 15.7812C103.784 14.6889 103.305 13.6878 102.662 12.8076L102.626 12.7588L102.583 12.7154C101.94 12.0568 101.115 11.6485 100.131 11.5011L100.089 11.4948L100.046 11.4926C99.8001 11.481 99.552 11.4746 99.3103 11.4746H99.3113ZM98.8829 19.654C98.8723 19.0676 98.8861 18.4938 98.9264 17.9488C98.954 17.5617 99.0059 17.2383 99.0812 16.9837C99.1268 17.1566 99.165 17.3411 99.1957 17.5362C99.2784 18.058 99.3495 18.5734 99.4067 19.0707C99.3717 19.7357 99.3145 20.3772 99.2371 20.9785C99.2222 21.092 99.2032 21.2044 99.1798 21.3168C99.1661 21.2691 99.1523 21.2214 99.1385 21.1737C99.0017 20.6837 98.9158 20.1726 98.8829 19.6551V19.654Z" fill="black"/>
<path d="M30.2912 25.5821L27.0476 25.475C26.5821 25.2841 26.2471 24.9553 26.0435 24.4887C25.8643 23.652 25.7508 22.5587 25.7031 21.2087C25.8219 20.2532 25.9184 18.7526 25.9894 16.7102C25.7986 15.1566 25.7201 14.1831 25.7561 13.7886C26.0308 13.2509 26.4188 12.8448 26.9214 12.5701C27.4113 12.4153 28.003 12.2986 28.6954 12.2202C29.3878 12.1428 30.0632 12.1035 30.7206 12.1035C31.2338 12.2106 31.7597 12.3898 32.2973 12.6412C32.8349 12.8925 33.2834 13.2626 33.6418 13.7525C34.0002 14.2425 34.2483 14.7897 34.3851 15.3931C34.5219 15.9965 34.5495 16.6508 34.4657 17.356C34.3098 17.9774 33.6652 18.7367 32.5306 19.6328C33.3428 19.9552 33.9048 20.3858 34.2155 20.9234C34.454 21.4971 34.5314 22.1907 34.4487 23.003C34.1858 23.6838 33.7616 24.318 33.1763 24.9034C32.4829 25.5015 31.5212 25.7273 30.2912 25.5842V25.5821ZM29.9678 17.9997C30.3622 17.7251 30.6549 17.3719 30.8457 16.9424C30.8934 16.4408 30.8341 15.9742 30.6665 15.5447C30.3198 15.3538 29.8596 15.3061 29.286 15.4016L29.322 16.7812L29.3581 18.1259L29.9678 18.0008V17.9997ZM30.8468 22.7326C31.1214 22.5056 31.2168 22.1949 31.1331 21.8004C31.061 21.4897 30.8701 21.2394 30.5594 21.0475C30.2371 20.8927 29.813 20.8269 29.287 20.8503L29.3591 22.9298L30.6135 22.8577L30.8468 22.7326Z" fill="white"/>
<path d="M39.565 25.5461C39.0507 25.439 38.5905 25.2481 38.1855 24.9724C37.7794 24.6977 37.3786 24.3626 36.9841 23.9681C36.3988 23.1081 35.998 22.1823 35.7838 21.1897C35.5686 20.1981 35.4848 19.1165 35.5325 17.9457C35.5325 17.0136 35.6396 16.1206 35.8549 15.2659C36.0701 14.4112 36.4465 13.6317 36.9841 12.9265C37.4973 12.3772 38.1038 12.0633 38.8036 11.9859C39.5024 11.9085 40.2224 11.8873 40.9635 11.9233C41.7641 12.0431 42.4215 12.3655 42.9347 12.8915C43.52 13.6922 43.9505 14.5914 44.2251 15.5893C44.4997 16.5872 44.6196 17.6297 44.5835 18.7167C44.6312 19.8397 44.4881 20.8981 44.153 21.8896C43.8179 22.8811 43.3164 23.7783 42.6473 24.5779C42.2773 24.9246 41.8256 25.194 41.2944 25.3849C40.7621 25.5758 40.1863 25.6299 39.565 25.5461ZM40.4429 22.5174C40.7536 21.932 40.9508 21.3169 41.0346 20.6711C41.1183 20.0253 41.1777 19.3445 41.2138 18.6276C41.1533 18.1016 41.0791 17.5555 40.99 16.987C40.8999 16.4197 40.7536 15.9266 40.5511 15.5088L39.9053 15.3295C39.654 15.461 39.4568 15.706 39.3137 16.0644C39.1705 16.4229 39.0772 16.8916 39.0359 17.4717C38.9934 18.0518 38.9786 18.652 38.9913 19.2734C39.0274 19.8588 39.1228 20.4293 39.2776 20.985C39.4324 21.5407 39.6243 22.0699 39.8512 22.5715L40.1916 22.6786L40.4429 22.5174Z" fill="white"/>
<path d="M49.5923 25.5461C49.078 25.439 48.6179 25.2481 48.2128 24.9724C47.8067 24.6977 47.4059 24.3626 47.0115 23.9681C46.4262 23.1081 46.0253 22.1823 45.8112 21.1897C45.5959 20.1981 45.5121 19.1165 45.5599 17.9457C45.5599 17.0136 45.667 16.1206 45.8822 15.2659C46.0975 14.4112 46.4739 13.6317 47.0115 12.9265C47.5247 12.3772 48.1312 12.0633 48.831 11.9859C49.5297 11.9085 50.2497 11.8873 50.9909 11.9233C51.7914 12.0431 52.4488 12.3655 52.962 12.8915C53.5473 13.6922 53.9778 14.5914 54.2525 15.5893C54.5271 16.5872 54.6469 17.6297 54.6108 18.7167C54.6586 19.8397 54.5154 20.8981 54.1804 21.8896C53.8453 22.8811 53.3438 23.7783 52.6747 24.5779C52.3046 24.9246 51.8529 25.194 51.3217 25.3849C50.7894 25.5758 50.2137 25.6299 49.5923 25.5461ZM50.4703 22.5174C50.7809 21.932 50.9782 21.3169 51.0619 20.6711C51.1457 20.0253 51.2051 19.3445 51.2411 18.6276C51.1807 18.1016 51.1065 17.5555 51.0174 16.987C50.9273 16.4197 50.7809 15.9266 50.5784 15.5088L49.9327 15.3295C49.6814 15.461 49.4841 15.706 49.341 16.0644C49.1979 16.4229 49.1045 16.8916 49.0632 17.4717C49.0208 18.0518 49.0059 18.652 49.0187 19.2734C49.0547 19.8588 49.1501 20.4293 49.305 20.985C49.4598 21.5407 49.6517 22.0699 49.8786 22.5715L50.219 22.6786L50.4703 22.5174Z" fill="white"/>
<path d="M56.3756 25.7249C55.8263 25.5934 55.539 25.4269 55.5156 25.2233L55.7128 14.9527C55.6407 13.9728 55.8199 13.1127 56.2504 12.3715C56.9428 11.9886 57.6427 11.8762 58.3478 12.0311C59.2798 12.1265 59.9245 12.2824 60.2829 12.4966C60.5098 12.7596 60.8173 13.6048 61.2064 15.0333C61.5945 16.4617 61.92 17.7788 62.183 18.9856C62.3505 17.8149 62.5923 16.6855 62.9093 15.5974C63.2253 14.5104 63.6356 13.5306 64.1372 12.6578C64.292 12.4553 64.4839 12.3238 64.7108 12.2633L67.4528 12.1021C67.8833 12.1498 68.1664 12.4998 68.3043 13.1509C68.4411 13.8021 68.51 14.4023 68.51 14.9527L68.7072 24.5785L68.4209 25.5107C67.5005 25.6899 66.5993 25.7143 65.7149 25.5828L65.5358 25.4036C65.3566 24.9857 65.1954 23.4438 65.0522 20.7789C64.6822 21.5912 64.3259 22.5626 63.9855 23.692C63.6452 24.8214 63.4215 25.3919 63.3133 25.4036C62.6803 25.6549 61.9571 25.7143 61.1449 25.5828C60.882 25.5945 60.5957 24.9857 60.285 23.7545C59.9743 22.5244 59.6043 21.5318 59.1738 20.7789C59.0667 24.0175 58.9225 25.6422 58.7433 25.6538L56.3777 25.726L56.3756 25.7249Z" fill="white"/>
<path d="M71.721 25.582C71.0519 25.4028 70.5981 25.2055 70.3585 24.9903C69.8325 22.9234 69.6777 21.5787 69.893 20.9573C69.9767 20.8142 71.6255 19.093 74.8394 15.795L74.445 15.6518L71.6489 15.7409C70.6331 15.7048 70.0722 15.6274 69.964 15.5076L69.6417 13.6433C69.6173 13.2127 69.683 12.8787 69.8389 12.639C70.3044 12.2445 70.8727 12.0292 71.5418 11.9932L74.6242 12.0292L76.7745 11.9221C77.3598 11.9105 77.891 12.305 78.3693 13.1056C78.3926 13.3919 78.3724 14.1184 78.3067 15.2838C78.241 16.4493 78.0522 17.1216 77.7426 17.3008C76.7268 18.4366 75.0727 19.9711 72.7781 21.9075L73.4769 21.9435C74.2053 21.8237 74.9136 21.6742 75.6007 21.495C76.2878 21.3158 77.0195 21.2086 77.7967 21.1726C78.1074 21.6031 78.2802 22.6785 78.3162 24.3985L78.0299 24.8291C76.5126 25.2352 75.4788 25.4569 74.9295 25.4919L71.721 25.582Z" fill="white"/>
<path d="M80.2065 25.6361L79.5077 25.3498C79.3762 24.9669 79.3338 24.4781 79.3826 23.88C79.5374 22.6371 79.6158 20.3189 79.6158 16.9254C79.5437 16.1491 79.4695 15.3898 79.3921 14.6486C79.3147 13.9073 79.2935 13.1247 79.3296 12.3007C79.6042 12.0854 80.7568 11.9486 82.7884 11.8882L83.5772 12.2466L83.309 14.129C83.4521 16.8777 83.4458 18.6402 83.291 19.4164L83.1839 22.1949C83.1478 22.7803 83.1298 23.3635 83.1298 23.9425C83.1298 24.5215 82.9739 25.0507 82.6643 25.529L80.2086 25.6361H80.2065Z" fill="white"/>
<path d="M84.7288 25.6541C84.6683 25.1408 84.6238 24.3635 84.5941 23.3243C84.5644 22.285 84.5315 21.4006 84.4955 20.671L84.4414 14.989C84.4414 14.0208 84.6323 13.1544 85.015 12.3898C85.9587 11.9242 86.9385 11.78 87.9543 11.9592C88.2289 12.1384 88.4378 12.3177 88.582 12.4969C88.88 12.9985 89.1525 13.7726 89.3974 14.8182C89.6423 15.8639 89.9021 16.8702 90.1767 17.8385L90.2308 15.6878L89.8904 13.1788C89.8067 12.6888 89.9795 12.2562 90.41 11.8797C90.8405 11.5032 91.3834 11.3505 92.0408 11.4226C92.483 11.447 92.8413 11.6262 93.116 11.9603C93.3545 12.4502 93.5009 12.9794 93.5549 13.5467C93.609 14.1141 93.6292 14.6369 93.6175 15.1152V19.023C93.5454 20.1227 93.4712 21.2277 93.3938 22.3391C93.3164 23.4505 93.0566 24.5321 92.6144 25.5831L90.1767 25.6552L89.6752 25.3688C89.3889 24.6159 89.1737 23.863 89.0295 23.11C88.8863 22.3571 88.6467 21.6763 88.3127 21.0665L88.1695 22.8587L88.2416 25.4399L87.0233 25.7983L84.7298 25.6552L84.7288 25.6541Z" fill="white"/>
<path d="M98.6118 25.5461C98.0976 25.439 97.6374 25.2481 97.2323 24.9724C96.8262 24.6977 96.4254 24.3626 96.032 23.9681C95.4467 23.1081 95.0459 22.1823 94.8307 21.1897C94.6154 20.1981 94.5317 19.1165 94.5794 17.9457C94.5794 17.0136 94.6865 16.1206 94.9017 15.2659C95.117 14.4112 95.4934 13.6317 96.031 12.9265C96.5442 12.3772 97.1507 12.0633 97.8505 11.9859C98.5493 11.9085 99.2692 11.8873 100.01 11.9233C100.811 12.0431 101.468 12.3655 101.982 12.8915C102.567 13.6922 102.997 14.5914 103.272 15.5893C103.547 16.5872 103.666 17.6297 103.63 18.7167C103.678 19.8397 103.535 20.8981 103.2 21.8896C102.865 22.8811 102.363 23.7783 101.694 24.5779C101.324 24.9246 100.872 25.194 100.341 25.3849C99.8089 25.5758 99.2332 25.6299 98.6118 25.5461ZM99.4908 22.5174C99.8015 21.932 99.9987 21.3169 100.083 20.6711C100.166 20.0253 100.226 19.3445 100.262 18.6276C100.201 18.1016 100.127 17.5555 100.038 16.987C99.9479 16.4197 99.8015 15.9266 99.599 15.5088L98.9533 15.3295C98.702 15.461 98.5047 15.706 98.3616 16.0644C98.2185 16.4229 98.1251 16.8916 98.0838 17.4717C98.0414 18.0518 98.0265 18.652 98.0393 19.2734C98.0753 19.8588 98.1707 20.4293 98.3255 20.985C98.4804 21.5407 98.6723 22.0699 98.8992 22.5715L99.2395 22.6786L99.4908 22.5174Z" fill="white"/>
<path d="M26.0435 24.4889C26.2471 24.9544 26.5811 25.2832 27.0476 25.4751L30.2912 25.5822C31.5212 25.7254 32.4839 25.4984 33.1763 24.9014C33.7616 24.316 34.1858 23.6829 34.4487 23.001C34.5325 22.1887 34.4551 21.4952 34.2155 20.9215C33.9048 20.3838 33.3428 19.9532 32.5306 19.6309C32.6334 19.5492 32.7321 19.4697 32.8275 19.3901C30.4926 19.5725 28.1567 19.7751 25.8198 19.9967C25.7837 20.4676 25.7445 20.8727 25.7031 21.2088C25.7508 22.5588 25.8643 23.6532 26.0435 24.4889ZM30.5594 21.0476C30.8701 21.2385 31.061 21.4899 31.1331 21.8006C31.2168 22.1951 31.1214 22.5058 30.8468 22.7327L30.6135 22.8579L29.3591 22.93L29.287 20.8504C29.813 20.8271 30.2371 20.8928 30.5594 21.0476Z" fill="#F6DA24"/>
<path d="M36.9828 23.969C37.3773 24.3635 37.777 24.6975 38.1842 24.9733C38.5903 25.2479 39.0505 25.4388 39.5637 25.547C40.185 25.6307 40.7619 25.5767 41.2931 25.3858C41.8243 25.1949 42.276 24.9255 42.6461 24.5788C43.3151 23.7781 43.8167 22.882 44.1517 21.8905C44.4857 20.8989 44.6299 19.8416 44.5822 18.7176C44.5822 18.691 44.5822 18.6656 44.5833 18.6401C43.4562 18.6963 42.329 18.7578 41.2008 18.8225C41.1637 19.4684 41.1086 20.0856 41.0333 20.672C40.9495 21.3178 40.7523 21.9329 40.4416 22.5183L40.1903 22.6795L39.85 22.5724C39.6231 22.0708 39.4311 21.5416 39.2763 20.9859C39.1205 20.4302 39.025 19.8597 38.99 19.2743C38.9879 19.1683 38.9879 19.0633 38.9869 18.9572C37.8353 19.0304 36.6828 19.1057 35.5312 19.1884C35.562 19.8926 35.6447 20.5606 35.7815 21.1916C35.9967 22.1832 36.3965 23.11 36.9818 23.97L36.9828 23.969Z" fill="#F6DA24"/>
<path d="M47.0101 23.9694C47.4046 24.3639 47.8043 24.6979 48.2115 24.9737C48.6176 25.2483 49.0778 25.4392 49.591 25.5474C50.2123 25.6311 50.7892 25.5771 51.3204 25.3862C51.8516 25.1953 52.3033 24.9259 52.6734 24.5792C53.3424 23.7785 53.844 22.8824 54.179 21.8909C54.513 20.8993 54.6562 19.8421 54.6095 18.718C54.6148 18.5663 54.6159 18.4147 54.6148 18.2651C53.4792 18.2938 52.3447 18.3277 51.209 18.3659C51.2196 18.4539 51.2303 18.5419 51.2409 18.6289C51.2048 19.3458 51.1454 20.0266 51.0617 20.6724C50.9779 21.3182 50.7807 21.9333 50.47 22.5187L50.2187 22.6799L49.8783 22.5728C49.6514 22.0712 49.4595 21.542 49.3047 20.9863C49.1488 20.4306 49.0534 19.8601 49.0184 19.2747C49.0131 18.9947 49.0142 18.719 49.0184 18.4465C47.8616 18.4921 46.7048 18.5419 45.5469 18.596C45.5479 19.5207 45.6349 20.3861 45.8098 21.192C46.0251 22.1836 46.4248 23.1104 47.0101 23.9705V23.9694Z" fill="#F6DA24"/>
<path d="M56.3756 25.7252L58.7412 25.6531C58.9204 25.6414 59.0635 24.0157 59.1717 20.7781C59.6021 21.531 59.9722 22.5226 60.2829 23.7538C60.5936 24.985 60.8798 25.5937 61.1428 25.582C61.955 25.7135 62.6782 25.6541 63.3112 25.4028C63.4183 25.3911 63.6431 24.8206 63.9834 23.6912C64.3238 22.5618 64.679 21.5915 65.0501 20.7781C65.1933 23.4431 65.3544 24.985 65.5336 25.4028L65.7128 25.582C66.5971 25.7135 67.4984 25.6891 68.4188 25.5099L68.7051 24.5778L68.5736 18.1397C66.489 18.1227 64.4033 18.1206 62.3177 18.1354C62.2678 18.4164 62.2222 18.6996 62.1819 18.9859C62.1215 18.7102 62.0579 18.427 61.9911 18.1397C59.8778 18.1566 57.7635 18.1895 55.6492 18.2383L55.5156 25.2236C55.539 25.4272 55.8263 25.5937 56.3756 25.7252Z" fill="#F6DA24"/>
<path d="M70.3649 24.9905C70.6035 25.2057 71.0573 25.403 71.7274 25.5822L74.936 25.4921C75.4853 25.456 76.5191 25.2354 78.0364 24.8293L78.3227 24.3987C78.2867 22.6776 78.1138 21.6023 77.8031 21.1728C77.0259 21.2088 76.2943 21.316 75.6072 21.4952C74.9201 21.6744 74.2118 21.8239 73.4834 21.9437L72.7846 21.9077C74.4716 20.4845 75.8108 19.2788 76.8064 18.2883C75.3771 18.248 73.9467 18.2173 72.5163 18.1929C70.8315 19.9331 69.9588 20.8557 69.8984 20.9586C69.6831 21.58 69.839 22.9247 70.3639 24.9915L70.3649 24.9905Z" fill="#F6DA24"/>
<path d="M79.5125 25.3486L80.2113 25.635L82.667 25.5279C82.9777 25.0496 83.1325 24.5215 83.1325 23.9414C83.1325 23.3613 83.1505 22.7791 83.1866 22.1937L83.2937 19.4153C83.3371 19.1969 83.3689 18.8978 83.3891 18.5224C82.1315 18.4673 80.8729 18.4185 79.6143 18.375C79.5942 20.9859 79.5189 22.8215 79.3863 23.8778C79.3386 24.4759 79.38 24.9658 79.5115 25.3476L79.5125 25.3486Z" fill="#F6DA24"/>
<path d="M84.5964 23.3231C84.6261 24.3623 84.6706 25.1397 84.731 25.6529L87.0245 25.7961L88.2429 25.4377L88.1708 22.8565L88.3139 21.0643C88.6479 21.6741 88.8875 22.3549 89.0307 23.1078C89.1738 23.8607 89.3891 24.6137 89.6764 25.3666L90.178 25.6529L92.6157 25.5808C93.0578 24.5299 93.3176 23.4482 93.395 22.3368C93.4703 21.252 93.5435 20.1724 93.6134 19.0982C90.5692 18.8893 87.5229 18.7143 84.4766 18.5732L84.4967 20.6698C84.5328 21.3983 84.5656 22.2828 84.5953 23.3231H84.5964Z" fill="#F6DA24"/>
<path d="M96.0329 23.9689C96.4273 24.3634 96.8271 24.6974 97.2332 24.9731C97.6393 25.2478 98.0995 25.4387 98.6127 25.5469C99.234 25.6306 99.8109 25.5765 100.342 25.3857C100.873 25.1948 101.325 24.9254 101.695 24.5786C102.364 23.778 102.866 22.8819 103.201 21.8904C103.415 21.2551 103.55 20.5923 103.607 19.903C102.47 19.7981 101.332 19.6984 100.195 19.6019C100.164 19.9677 100.126 20.3251 100.081 20.6708C99.9975 21.3166 99.8003 21.9317 99.4896 22.5171L99.2383 22.6783L98.8979 22.5712C98.671 22.0696 98.4791 21.5404 98.3243 20.9847C98.1822 20.4778 98.0931 19.9571 98.0507 19.4258C96.8939 19.3346 95.736 19.2477 94.5781 19.166C94.6078 19.8776 94.6905 20.5531 94.8294 21.1915C95.0447 22.183 95.4444 23.1099 96.0308 23.9699L96.0329 23.9689Z" fill="#F6DA24"/>
<path d="M29.4887 20.877C29.9012 20.877 30.2437 20.9407 30.5067 21.0658C30.7919 21.2429 30.9626 21.4667 31.0273 21.7477C31.1015 22.0998 31.022 22.3691 30.7845 22.5696L30.5819 22.6788L29.459 22.7424L29.3944 20.8781C29.4262 20.8781 29.458 20.877 29.4887 20.877ZM29.4887 20.771C29.423 20.771 29.3551 20.7721 29.2852 20.7752L29.3573 22.8548L30.6116 22.7827L30.8449 22.6576C31.1195 22.4306 31.215 22.1199 31.1312 21.7254C31.0591 21.4147 30.8682 21.1644 30.5576 20.9725C30.2776 20.8378 29.9214 20.771 29.4887 20.771Z" fill="white"/>
<path d="M30.9729 25.4964C30.7576 25.4964 30.5296 25.4826 30.2942 25.4551L27.056 25.3479C26.6096 25.1624 26.2851 24.8421 26.09 24.3935C25.9151 23.5727 25.8016 22.473 25.7539 21.1326C25.7942 20.8176 25.8324 20.4242 25.8674 19.9714C28.1704 19.7529 30.4554 19.5557 32.663 19.3828C32.6089 19.4274 32.5538 19.4708 32.4965 19.5164L32.4244 19.5737L32.5103 19.6076C33.3077 19.9237 33.8654 20.351 34.1687 20.876C34.3988 21.4306 34.4762 22.1188 34.3956 22.9163C34.1369 23.5844 33.7127 24.2154 33.1381 24.7912C32.5952 25.2599 31.8657 25.4985 30.975 25.4985L30.9729 25.4964ZM29.4884 20.7179C29.4216 20.7179 29.3527 20.7201 29.2827 20.7222L29.2307 20.7243L29.306 22.9099L30.6261 22.8346L30.87 22.7031C31.168 22.4582 31.2708 22.1273 31.1839 21.7137C31.1086 21.3892 30.9082 21.1252 30.5858 20.9269C30.2953 20.7869 29.9284 20.7169 29.4895 20.7169L29.4884 20.7179Z" fill="#EFB920"/>
<path d="M32.4977 19.4474C32.4871 19.4559 32.4765 19.4644 32.4659 19.4729L32.3217 19.5863L32.4924 19.6542C33.2749 19.9649 33.8231 20.3817 34.1211 20.8939C34.348 21.4432 34.4243 22.1187 34.3448 22.9014C34.0882 23.5599 33.6715 24.1813 33.1042 24.7487C32.5677 25.21 31.852 25.4433 30.9751 25.4433C30.762 25.4433 30.5361 25.4295 30.3028 25.4019H30.2986H30.2944L27.0699 25.2948C26.6447 25.1156 26.334 24.8091 26.1453 24.3818C25.9693 23.5578 25.8569 22.4666 25.8092 21.1389C25.8473 20.8271 25.8844 20.4517 25.9184 20.019C28.1461 19.808 30.3569 19.616 32.4977 19.4474ZM29.2563 22.9671L29.3644 22.9607L30.6188 22.8886H30.6421L30.6634 22.8759L30.8966 22.7508L30.9062 22.7455L30.9146 22.7391C31.2211 22.4867 31.3292 22.1378 31.237 21.7009C31.1585 21.3637 30.9496 21.088 30.6156 20.8822L30.6114 20.879L30.6061 20.8769C30.3134 20.7359 29.9381 20.6648 29.4917 20.6648C29.4238 20.6648 29.3538 20.667 29.2828 20.6701L29.1778 20.6744L29.181 20.7794L29.2531 22.8589L29.2574 22.9671M32.8275 19.3159C30.4926 19.4983 28.1567 19.7009 25.8198 19.9225C25.7837 20.3934 25.7445 20.7985 25.7031 21.1346C25.7508 22.4846 25.8643 23.579 26.0435 24.4146C26.2471 24.8802 26.5811 25.2089 27.0476 25.4009L30.2912 25.508C30.5298 25.5356 30.7577 25.5494 30.9762 25.5494C31.8849 25.5494 32.6186 25.3086 33.1774 24.8272C33.7627 24.2418 34.1868 23.6087 34.4498 22.9268C34.5336 22.1145 34.4562 21.4209 34.2165 20.8472C33.9058 20.3096 33.3439 19.879 32.5317 19.5566C32.6345 19.475 32.7331 19.3955 32.8285 19.3159H32.8275ZM29.3591 22.8547L29.287 20.7751C29.357 20.7719 29.4249 20.7709 29.4906 20.7709C29.9232 20.7709 30.2795 20.8377 30.5594 20.9724C30.8701 21.1633 31.061 21.4146 31.1331 21.7253C31.2168 22.1198 31.1214 22.4305 30.8468 22.6575L30.6135 22.7826L29.3591 22.8547Z" fill="white"/>
<path d="M40.1217 25.457C39.9436 25.457 39.7601 25.4443 39.5735 25.4189C39.072 25.3139 38.6139 25.1241 38.2163 24.8536C37.8155 24.5822 37.4136 24.247 37.0234 23.8568C36.4508 23.0137 36.05 22.0847 35.8369 21.1049C35.7054 20.4962 35.6217 19.8429 35.5898 19.1621C36.6173 19.0889 37.7137 19.0158 38.9373 18.9383C38.9373 19.0253 38.9373 19.1123 38.9394 19.1992C38.9755 19.7878 39.073 20.3679 39.2278 20.9246C39.3826 21.4803 39.5767 22.0158 39.8047 22.5185L39.8142 22.5397L40.2012 22.6616L40.4843 22.4792L40.4907 22.4665C40.8024 21.879 41.0039 21.2512 41.0877 20.6022C41.1608 20.0402 41.216 19.4325 41.2531 18.7962C42.4067 18.7294 43.4798 18.6722 44.5316 18.6191V18.6393C44.5783 19.7549 44.4341 20.8164 44.1043 21.7963C43.7735 22.7772 43.2698 23.6765 42.6082 24.4676C42.2487 24.8027 41.8002 25.071 41.2775 25.2587C40.9159 25.3892 40.5267 25.4549 40.1206 25.4549L40.1217 25.457Z" fill="#EFB920"/>
<path d="M44.4773 18.6763C44.5207 19.7707 44.3776 20.8153 44.051 21.7813C43.7223 22.7538 43.224 23.6456 42.5687 24.4304C42.2113 24.7634 41.7702 25.0253 41.257 25.2098C40.9008 25.3382 40.518 25.4028 40.1182 25.4028C39.9443 25.4028 39.763 25.3901 39.5807 25.3657C39.0834 25.2618 38.6338 25.0741 38.2425 24.809C37.847 24.5417 37.4504 24.2109 37.0645 23.8249C36.4919 22.9818 36.0953 22.0624 35.8854 21.092C35.7571 20.5024 35.6755 19.8693 35.6415 19.2097C36.6361 19.1387 37.6986 19.0676 38.8808 18.9934C38.8808 19.0623 38.8808 19.1312 38.883 19.2033C38.919 19.794 39.0166 20.3773 39.1735 20.9372C39.3294 21.495 39.5245 22.0337 39.7524 22.5385L39.7715 22.582L39.8171 22.5958L40.1575 22.7029L40.2052 22.7177L40.2465 22.6912L40.4978 22.53L40.5212 22.5152L40.5339 22.4908C40.8488 21.8969 41.0513 21.2638 41.1372 20.6085C41.2083 20.0591 41.2634 19.4663 41.3005 18.846C42.416 18.7813 43.4572 18.7251 44.4762 18.6742M44.5833 18.5649C43.4562 18.6211 42.329 18.6827 41.2008 18.7473C41.1637 19.3932 41.1086 20.0104 41.0333 20.5968C40.9495 21.2426 40.7523 21.8577 40.4416 22.4431L40.1903 22.6043L39.85 22.4972C39.6231 21.9956 39.4311 21.4664 39.2763 20.9107C39.1205 20.355 39.025 19.7845 38.99 19.1991C38.9879 19.0931 38.9879 18.9881 38.9869 18.882C37.8353 18.9552 36.6828 19.0305 35.5312 19.1132C35.562 19.8174 35.6447 20.4854 35.7815 21.1164C35.9967 22.108 36.3965 23.0348 36.9818 23.8949C37.3762 24.2893 37.776 24.6234 38.1831 24.8991C38.5892 25.1738 39.0494 25.3647 39.5626 25.4728C39.7514 25.4983 39.9369 25.511 40.1182 25.511C40.5318 25.511 40.923 25.4442 41.2931 25.3116C41.8243 25.1208 42.276 24.8514 42.6461 24.5046C43.3151 23.704 43.8167 22.8079 44.1517 21.8163C44.4857 20.8248 44.6299 19.7675 44.5822 18.6434C44.5822 18.6169 44.5822 18.5915 44.5833 18.566V18.5649Z" fill="white"/>
<path d="M50.1433 25.457C49.9652 25.457 49.7817 25.4443 49.5951 25.4189C49.0936 25.3139 48.6355 25.1241 48.2379 24.8536C47.8371 24.5822 47.4352 24.247 47.045 23.8568C46.4724 23.0137 46.0716 22.0848 45.8585 21.1049C45.6899 20.3254 45.6019 19.4728 45.5977 18.5704C46.6951 18.5184 47.8265 18.4696 48.9621 18.4251C48.9578 18.6923 48.9578 18.9458 48.9621 19.1992C48.9981 19.7878 49.0957 20.3679 49.2505 20.9246C49.4053 21.4803 49.5993 22.0158 49.8273 22.5185L49.8369 22.5397L50.2239 22.6616L50.507 22.4792L50.5134 22.4665C50.8251 21.879 51.0266 21.2512 51.1103 20.6022C51.1941 19.9575 51.2545 19.2681 51.2895 18.5545C51.281 18.4781 51.2736 18.4092 51.2651 18.3402C52.3212 18.3052 53.4282 18.2724 54.5585 18.2427C54.5585 18.3837 54.5575 18.5142 54.5532 18.6393C54.5999 19.7549 54.4567 20.8164 54.1259 21.7963C53.7951 22.7772 53.2914 23.6765 52.6298 24.4676C52.2703 24.8027 51.8218 25.071 51.2991 25.2587C50.9375 25.3892 50.5483 25.4549 50.1422 25.4549L50.1433 25.457Z" fill="#EFB920"/>
<path d="M54.5088 18.2976C54.5088 18.4185 54.5067 18.5309 54.5035 18.638V18.6423V18.6465C54.5501 19.7515 54.407 20.8067 54.0783 21.7813C53.7507 22.7537 53.2512 23.6456 52.596 24.4303C52.2386 24.7633 51.7975 25.0252 51.2843 25.2098C50.9281 25.3381 50.5453 25.4028 50.1455 25.4028C49.9716 25.4028 49.7903 25.39 49.6079 25.3656C49.1106 25.2617 48.6611 25.074 48.2698 24.8089C47.8743 24.5417 47.4777 24.2108 47.0918 23.8248C46.5192 22.9817 46.1226 22.0623 45.9127 21.092C45.7473 20.3305 45.6603 19.5002 45.6529 18.62C46.7185 18.5702 47.8128 18.5224 48.9102 18.479C48.906 18.7271 48.9071 18.9636 48.9113 19.2033C48.9474 19.7939 49.0449 20.3772 49.2018 20.9371C49.3577 21.4949 49.5528 22.0337 49.7808 22.5384L49.7999 22.5819L49.8455 22.5957L50.1858 22.7028L50.2335 22.7177L50.2749 22.6911L50.5262 22.5299L50.5495 22.5151L50.5622 22.4907C50.8772 21.8968 51.0797 21.2637 51.1656 20.6084C51.2493 19.9615 51.3098 19.2711 51.3458 18.5564V18.5479V18.5394C51.3405 18.4906 51.3342 18.4408 51.3278 18.3909C52.3489 18.357 53.4177 18.3252 54.5088 18.2966M54.6148 18.1895C53.4792 18.2181 52.3447 18.252 51.209 18.2902C51.2196 18.3782 51.2303 18.4662 51.2409 18.5532C51.2048 19.2701 51.1454 19.9509 51.0617 20.5967C50.9779 21.2425 50.7807 21.8576 50.47 22.443L50.2187 22.6042L49.8783 22.4971C49.6514 21.9955 49.4595 21.4663 49.3047 20.9106C49.1488 20.3549 49.0534 19.7844 49.0184 19.199C49.0131 18.9191 49.0142 18.6433 49.0184 18.3708C47.8616 18.4164 46.7048 18.4662 45.5469 18.5203C45.5479 19.445 45.6349 20.3104 45.8098 21.1163C46.0251 22.1079 46.4248 23.0347 47.0101 23.8948C47.4046 24.2893 47.8043 24.6233 48.2115 24.899C48.6176 25.1737 49.0778 25.3646 49.591 25.4727C49.7797 25.4982 49.9653 25.5109 50.1466 25.5109C50.5601 25.5109 50.9514 25.4441 51.3214 25.3116C51.8527 25.1207 52.3044 24.8513 52.6744 24.5045C53.3435 23.7039 53.845 22.8078 54.1801 21.8163C54.5141 20.8247 54.6572 19.7674 54.6106 18.6433C54.6159 18.4917 54.6169 18.34 54.6159 18.1905L54.6148 18.1895Z" fill="white"/>
<path d="M56.3797 25.5982C55.7339 25.4424 55.5813 25.2653 55.5664 25.1433L55.7 18.2163C57.8122 18.1675 59.9138 18.1347 61.9485 18.1188C62.0122 18.3924 62.0726 18.6607 62.1299 18.9237L62.1924 19.211L62.2338 18.9194C62.2719 18.6554 62.3144 18.3849 62.3621 18.1145C63.275 18.1082 64.2102 18.105 65.1401 18.105C66.2482 18.105 67.3849 18.1092 68.5215 18.1188L68.652 24.4975L68.3773 25.3915C67.8631 25.4901 67.3467 25.5399 66.8441 25.5399C66.474 25.5399 66.1019 25.5134 65.7371 25.4593L65.5781 25.3003C65.4042 24.8761 65.243 23.3299 65.102 20.7031L65.0903 20.4879L65.0012 20.684C64.6312 21.4953 64.2717 22.4773 63.9324 23.6035C63.4945 25.0553 63.345 25.2589 63.3015 25.279C62.8838 25.4434 62.432 25.5251 61.9485 25.5251C61.6941 25.5251 61.4258 25.5028 61.1512 25.4583H61.1459H61.1406C61.0048 25.4583 60.727 25.226 60.3337 23.6703C60.023 22.4402 59.6476 21.4348 59.2171 20.6819L59.1238 20.5197L59.1175 20.7063C58.9849 24.7159 58.8195 25.454 58.7315 25.5304L56.3807 25.6014L56.3797 25.5982Z" fill="#EFB920"/>
<path d="M65.1392 18.0518V18.1578C66.2313 18.1578 67.351 18.162 68.4697 18.1705L68.5991 24.4888L68.3361 25.3435C67.8356 25.4369 67.3341 25.4846 66.8442 25.4846C66.4826 25.4846 66.1189 25.4591 65.7627 25.4072L65.6238 25.2682C65.453 24.8366 65.2961 23.3 65.1562 20.6976L65.1328 20.266L64.9536 20.6594C64.5825 21.4739 64.222 22.458 63.8827 23.5853C63.4734 24.9427 63.3218 25.1845 63.2794 25.2269L63.273 25.229C62.8722 25.3881 62.4269 25.4687 61.9497 25.4687C61.6984 25.4687 61.4333 25.4464 61.1608 25.4019L61.147 25.3997H61.1364C61.0643 25.3997 60.7961 25.2746 60.3868 23.6521C60.075 22.4166 59.6976 21.4071 59.265 20.6499L59.0794 20.3254L59.0667 20.6997C58.9416 24.4665 58.791 25.3202 58.7051 25.474L56.3883 25.544C55.7606 25.3923 55.6376 25.229 55.6238 25.142L55.7553 18.267C57.8367 18.2193 59.9054 18.1875 61.9094 18.1716C61.972 18.442 62.0282 18.6923 62.0812 18.9341L62.2063 19.5099L62.289 18.9266C62.324 18.6785 62.3654 18.4229 62.4099 18.1673C63.3091 18.161 64.2284 18.1578 65.1424 18.1578V18.0518M65.1392 18.0518C64.1987 18.0518 63.2582 18.0549 62.3177 18.0613C62.2678 18.3423 62.2222 18.6255 62.1819 18.9118C62.1215 18.6361 62.0579 18.3529 61.9911 18.0655C59.8778 18.0825 57.7635 18.1154 55.6492 18.1642L55.5156 25.1495C55.539 25.3531 55.8263 25.5196 56.3756 25.6511L58.7411 25.579C58.9203 25.5673 59.0635 23.9416 59.1716 20.704C59.6021 21.4569 59.9722 22.4485 60.2829 23.6797C60.5904 24.8992 60.8745 25.5079 61.1354 25.5079C61.1375 25.5079 61.1407 25.5079 61.1428 25.5079C61.4217 25.5535 61.691 25.5758 61.9487 25.5758C62.4417 25.5758 62.8955 25.4931 63.3112 25.3287C63.4183 25.317 63.6431 24.7465 63.9834 23.6171C64.3238 22.4877 64.679 21.5174 65.0501 20.704C65.1933 23.3689 65.3544 24.9109 65.5336 25.3287L65.7128 25.5079C66.0871 25.5631 66.4646 25.5917 66.8442 25.5917C67.3627 25.5917 67.8876 25.5397 68.4188 25.4369L68.7051 24.5047L68.5736 18.0666C67.4295 18.0571 66.2843 18.0528 65.1392 18.0528V18.0518Z" fill="white"/>
<path d="M71.7305 25.4538C71.0879 25.2809 70.6436 25.09 70.4093 24.8864C69.8919 22.8482 69.736 21.5067 69.9459 20.8991C69.9809 20.8408 70.4634 20.3095 72.5353 18.1694C74.0165 18.1959 75.3738 18.2256 76.678 18.2617C75.6951 19.232 74.3739 20.4187 72.7473 21.7909L72.6445 21.8779L73.4832 21.9214H73.4885C74.2138 21.8015 74.9306 21.6499 75.6166 21.4717C76.2888 21.2968 77.013 21.1886 77.7722 21.1525C78.0638 21.5863 78.2303 22.6478 78.2653 24.3095L77.9991 24.7093C76.503 25.1091 75.4703 25.3308 74.9284 25.3658L71.7305 25.4548V25.4538Z" fill="#EFB920"/>
<path d="M72.5609 18.2233C73.9891 18.2487 75.2986 18.2774 76.5551 18.3113C75.5828 19.2647 74.2934 20.4206 72.7157 21.7504L72.51 21.9233L72.7782 21.937L73.477 21.9731H73.4887L73.5003 21.972C74.2266 21.8533 74.9445 21.7016 75.6337 21.5213C76.2932 21.3495 77.0037 21.2424 77.748 21.2053C78.0226 21.6433 78.1806 22.6804 78.2156 24.2913L77.9696 24.6603C76.4873 25.0559 75.4641 25.2754 74.9318 25.3093L71.7391 25.3984C71.1188 25.2308 70.6894 25.0484 70.4593 24.8554C69.9514 22.8501 69.7945 21.5288 69.9949 20.9275C70.0627 20.831 70.5749 20.2732 72.5609 18.2222M72.5437 18.1172C70.8588 19.8574 69.9588 20.7801 69.8984 20.8829C69.6831 21.5044 69.839 22.849 70.3639 24.9159C70.6024 25.1312 71.0563 25.3284 71.7264 25.5076L74.9349 25.4175C75.4842 25.3814 76.518 25.1609 78.0354 24.7547L78.3216 24.3242C78.2856 22.603 78.1128 21.5277 77.8021 21.0982C77.0249 21.1343 76.2932 21.2414 75.6061 21.4206C74.919 21.5998 74.2107 21.7493 73.4823 21.8692L72.7835 21.8331C74.4705 20.41 75.8097 19.2042 76.8054 18.2137C75.376 18.1734 73.9457 18.1427 72.5153 18.1183L72.5437 18.1172Z" fill="white"/>
<path d="M79.5521 25.2346C79.4291 24.8645 79.391 24.3852 79.4366 23.8094C79.567 22.7669 79.6433 20.9313 79.6635 18.3564C80.921 18.3999 82.1542 18.4487 83.329 18.4996C83.3089 18.8496 83.2781 19.1285 83.2378 19.331L83.1297 22.1179C83.0936 22.7001 83.0756 23.2887 83.0756 23.8677C83.0756 24.4467 82.9272 24.9409 82.6335 25.4022L80.217 25.5082L79.5511 25.2346H79.5521Z" fill="#EFB920"/>
<path d="M79.7203 18.4112C80.9376 18.4536 82.1326 18.5002 83.2778 18.5501C83.2576 18.8725 83.229 19.1312 83.1908 19.321L83.1887 19.3295V19.338L83.0805 22.1143C83.0445 22.6986 83.0265 23.2893 83.0265 23.8683C83.0265 24.406 82.8854 24.9044 82.6066 25.3509L80.2293 25.4548L79.5973 25.195C79.4828 24.8344 79.4478 24.3699 79.4913 23.8174C79.6207 22.7771 79.6981 20.9584 79.7193 18.4112M79.6143 18.3009C79.5942 20.9117 79.5189 22.7474 79.3863 23.8036C79.3386 24.4017 79.38 24.8917 79.5115 25.2734L80.2102 25.5598L82.6659 25.4527C82.9766 24.9744 83.1314 24.4463 83.1314 23.8662C83.1314 23.2861 83.1495 22.7039 83.1855 22.1186L83.2926 19.3401C83.3361 19.1217 83.3679 18.8226 83.388 18.4472C82.1305 18.3921 80.8719 18.3433 79.6132 18.2998L79.6143 18.3009Z" fill="white"/>
<path d="M84.7744 25.5293C84.7171 25.0203 84.6737 24.2536 84.645 23.2482C84.6154 22.2132 84.5825 21.3203 84.5464 20.5939L84.5273 18.5557C87.5238 18.6956 90.5606 18.8696 93.555 19.0742C93.4871 20.1092 93.415 21.1803 93.3398 22.2599C93.2634 23.349 93.0068 24.4243 92.5774 25.4561L90.1885 25.5261L89.7155 25.2557C89.4346 24.5155 89.2204 23.7647 89.0793 23.0234C88.9362 22.2694 88.6923 21.5769 88.3573 20.964L88.2724 20.8092L88.1155 22.7784L88.1855 25.3246L87.0149 25.6693L84.7744 25.5293Z" fill="#EFB920"/>
<path d="M84.5847 18.6108C87.5452 18.7486 90.5438 18.9215 93.5021 19.123C93.4353 20.141 93.3643 21.1941 93.29 22.2556C93.2147 23.3288 92.9645 24.3871 92.5446 25.4031L90.2055 25.472L89.7623 25.2186C89.4856 24.4868 89.2756 23.7456 89.1357 23.0138C88.9914 22.2545 88.7465 21.5568 88.4072 20.9396L88.2365 20.6288L88.2079 20.982L88.0647 22.7742V22.7795V22.7848L88.1336 25.2843L87.0107 25.6141L84.8243 25.4773C84.7703 24.9704 84.7279 24.2196 84.7003 23.244C84.6706 22.2068 84.6377 21.3129 84.6017 20.5928L84.5826 18.6087M84.4776 18.5005L84.4978 20.597C84.5338 21.3256 84.5667 22.21 84.5964 23.2503C84.6261 24.2896 84.6706 25.0669 84.731 25.5802L87.0245 25.7233L88.2429 25.3649L88.1708 22.7837L88.3139 20.9915C88.6479 21.6013 88.8875 22.2821 89.0307 23.0351C89.1738 23.788 89.3891 24.5409 89.6764 25.2938L90.178 25.5802L92.6157 25.5081C93.0578 24.4571 93.3176 23.3755 93.395 22.2641C93.4703 21.1792 93.5435 20.0997 93.6134 19.0254C90.5692 18.8165 87.5229 18.6415 84.4766 18.5005H84.4776Z" fill="white"/>
<path d="M99.1686 25.4567C98.9904 25.4567 98.8059 25.4439 98.6204 25.4185C98.1188 25.3135 97.6608 25.1237 97.2632 24.8533C96.8624 24.5818 96.4605 24.2467 96.0703 23.8564C95.4977 23.0134 95.0958 22.0844 94.8838 21.1045C94.7512 20.4937 94.6685 19.8351 94.6367 19.1479C95.7946 19.2296 96.927 19.3144 98.0043 19.4003C98.0489 19.9274 98.1401 20.4396 98.2758 20.9253C98.4306 21.481 98.6246 22.0165 98.8526 22.5192L98.8621 22.5404L99.2492 22.6623L99.5323 22.4799L99.5386 22.4672C99.8504 21.8787 100.052 21.2519 100.136 20.6029C100.177 20.2837 100.214 19.9412 100.245 19.5849C101.444 19.6867 102.527 19.7821 103.551 19.8765C103.492 20.5425 103.357 21.1893 103.151 21.7981C102.82 22.779 102.317 23.6783 101.655 24.4694C101.296 24.8045 100.847 25.0728 100.324 25.2605C99.9628 25.3909 99.5736 25.4567 99.1675 25.4567H99.1686Z" fill="#EFB920"/>
<path d="M94.6905 19.2043C95.8166 19.2838 96.913 19.3665 97.9532 19.4482C97.9998 19.9625 98.0899 20.4631 98.2225 20.9371C98.3784 21.4949 98.5734 22.0336 98.8014 22.5384L98.8205 22.5819L98.8661 22.5957L99.2065 22.7028L99.2542 22.7176L99.2955 22.6911L99.5468 22.5299L99.5702 22.5151L99.5829 22.4907C99.8978 21.8968 100.1 21.2637 100.186 20.6083C100.225 20.3029 100.26 19.9774 100.291 19.6401C101.449 19.7377 102.498 19.831 103.491 19.9222C103.43 20.5659 103.298 21.1895 103.099 21.7791C102.771 22.7516 102.272 23.6434 101.617 24.4282C101.259 24.7611 100.818 25.0241 100.305 25.2076C99.9487 25.3359 99.5659 25.4006 99.1662 25.4006C98.9923 25.4006 98.811 25.3879 98.6286 25.3635C98.1313 25.2596 97.6817 25.0719 97.2904 24.8067C96.8949 24.5395 96.4984 24.2086 96.1124 23.8226C95.5398 22.9796 95.1433 22.0601 94.9333 21.0898C94.805 20.4991 94.7234 19.8639 94.6905 19.2011M94.5792 19.0908C94.6089 19.8024 94.6916 20.4779 94.8305 21.1163C95.0457 22.1079 95.4455 23.0347 96.0318 23.8947C96.4263 24.2892 96.826 24.6233 97.2321 24.899C97.6382 25.1737 98.0984 25.3645 98.6116 25.4727C98.8004 25.4982 98.9859 25.5109 99.1672 25.5109C99.5808 25.5109 99.972 25.4441 100.342 25.3115C100.873 25.1206 101.325 24.8513 101.695 24.5045C102.364 23.7039 102.866 22.8078 103.201 21.8162C103.415 21.181 103.55 20.5182 103.607 19.8289C102.47 19.7239 101.332 19.6242 100.195 19.5277C100.164 19.8936 100.126 20.251 100.081 20.5967C99.9975 21.2425 99.8002 21.8576 99.4896 22.443L99.2383 22.6042L98.8979 22.497C98.671 21.9954 98.4791 21.4663 98.3243 20.9106C98.1822 20.4037 98.0931 19.883 98.0507 19.3517C96.8939 19.2605 95.736 19.1735 94.5781 19.0919L94.5792 19.0908Z" fill="white"/>
<path d="M9.84697 18.3882C9.84697 18.3882 5.72971 20.2599 3.10009 18.1803C0.469405 16.1007 2.3621 13.1876 2.3621 13.1876C2.3621 13.1876 0.523482 10.5704 1.90509 8.79835C3.2867 7.02631 4.87296 6.66999 5.54733 6.54379C5.54733 6.54379 6.99468 2.04741 11.7641 2.07286C11.7641 2.07286 14.7478 2.32526 15.7615 3.47056C15.7615 3.47056 20.0633 4.22985 20.2223 6.6965C20.2223 6.6965 24.1689 9.52053 23.3227 11.9013C23.3227 11.9013 22.7523 16.0976 15.6799 16.0488L9.84697 18.3871V18.3882Z" fill="#F6DA24"/>
<path d="M23.3732 11.829C23.3732 11.829 22.8028 16.0253 15.7304 15.9765L9.8975 18.3148C9.8975 18.3148 5.7813 20.1865 3.15062 18.107C1.19537 16.5619 1.73932 14.5565 2.14648 13.6275C4.78034 15.4622 8.68978 13.6837 8.68978 13.6837L14.5227 11.3454C19.5486 11.3804 21.2908 9.27114 21.8782 8.04736C22.8569 9.08132 23.8377 10.5214 23.3722 11.8279L23.3732 11.829Z" fill="#EFB920"/>
<path d="M11.0782 20.8975C11.0782 20.8975 8.88224 16.8158 7.18359 16.3269L9.74005 16.1625L11.8565 15.3958L14.0651 14.5962L16.5665 14.4414C16.5665 14.4414 15.4902 18.5507 15.9525 19.5507L11.0771 20.8965L11.0782 20.8975Z" fill="#B78B00"/>
<path d="M8.38429 16.9102C8.38429 16.9102 6.42056 15.9155 6.06641 15.4415C6.06641 15.4415 7.75021 16.1042 8.71617 15.4531C8.71617 15.4531 6.9995 14.8699 7.00268 12.4764C7.00268 12.4764 8.90173 14.1965 10.5739 14.0597C10.5739 14.0597 9.90374 13.8094 9.90268 13.2749C9.90268 13.2749 11.8516 14.4902 13.5078 12.7754C13.5078 12.7754 13.5227 13.2654 13.2162 13.6068C13.2162 13.6068 14.9636 13.5294 16.7206 10.2939C16.7206 10.2939 16.9401 12.7171 16.235 13.6111C16.235 13.6111 17.3473 13.7309 18.1022 12.7351L16.8701 14.9155L14.2055 15.0576L11.9449 15.942C11.9449 15.942 9.85709 16.6101 9.79665 16.6133C9.73621 16.6165 8.38535 16.9091 8.38535 16.9091L8.38429 16.9102Z" fill="#B78B00"/>
<path d="M3.80328 11.7491C3.80328 11.7491 4.29952 11.2634 4.81378 11.1223C4.81378 11.1223 3.69619 10.9898 2.87761 11.5327C2.87761 11.5327 3.07165 8.3068 5.38529 7.70127L5.31107 6.66095L4.50416 6.65141C4.29315 6.64929 4.08957 6.72564 3.93264 6.86562L1.62324 8.92505L1.17578 11.8032L2.18628 13.3684L3.80328 11.748V11.7491Z" fill="#B78B00"/>
<path d="M5.53348 19.045C5.53348 19.045 1.69614 15.8986 2.86357 12.6387L2.12876 13.5772L1.79688 16.3641L2.89114 17.9028L4.74566 18.8774L5.5356 19.046L5.53348 19.045Z" fill="white"/>
<path d="M15.6657 3.50055L15.3688 3.07848L12.9534 2.00635L9.10015 2.6087L6.67518 4.33938L5.57031 6.71271C5.57031 6.71271 9.80634 1.69775 15.6657 3.50161V3.50055Z" fill="white"/>
<path d="M6.39453 9.80949C6.39453 9.80949 7.53015 4.60895 13.8677 6.29404C13.8677 6.29404 11.9189 5.85182 10.7164 6.89002C10.7164 6.89002 13.8614 6.31737 15.6279 7.39162C15.6279 7.39162 10.3167 6.97168 8.40704 8.71827C8.40704 8.71827 8.32115 8.09047 9.67519 6.88472C9.67519 6.88472 7.53439 7.81157 6.39559 9.80949H6.39453Z" fill="white"/>
<path d="M6.87148 19.1468C5.11134 19.5551 2.84435 19.1192 1.97382 17.3695C1.06617 15.5179 1.6642 13.6557 3.09777 12.2835C3.46782 11.9282 3.87075 11.6101 4.30973 11.3545C3.03521 12.4245 1.87521 14.0067 2.10318 15.7469C2.23042 16.6674 2.72135 17.5179 3.42859 18.1033C4.39031 18.8721 5.65741 19.1192 6.87148 19.1479V19.1468Z" fill="black"/>
<path d="M17.6417 5.97754C20.002 6.38582 22.8055 7.76125 23.4767 10.2565C24.0143 12.3764 22.9921 14.1283 21.0825 15.052C20.5205 15.3256 19.9299 15.5281 19.3234 15.6352C19.6139 15.5387 19.8949 15.4168 20.1706 15.2842C22.1619 14.3255 23.4947 12.7158 22.832 10.4315C22.1651 8.08999 19.8058 6.74532 17.6406 5.97754H17.6417Z" fill="black"/>
<path d="M5.47497 9.07236C4.98404 7.45726 5.32016 5.59932 6.39003 4.28328C7.58397 2.79438 9.50317 2.16447 11.3344 1.94813C12.8464 1.76573 14.4178 2.23022 15.5831 3.20903C15.8386 3.42218 16.0762 3.65336 16.2808 3.91636L16.2225 3.96514C15.3042 3.09132 14.0668 2.52503 12.8082 2.41792C12.1763 2.35747 11.5613 2.42958 10.9389 2.5632C10.3143 2.69364 9.70357 2.87286 9.12463 3.11465C7.68788 3.6979 6.41654 4.75731 5.87471 6.24091C5.53117 7.13912 5.40817 8.11263 5.47497 9.07236Z" fill="black"/>
<path d="M2.10475 13.6877C1.77287 13.3876 1.52051 13.008 1.33389 12.6029C0.776158 11.4024 0.990344 9.97608 1.61064 8.84986C2.09733 7.91453 2.91272 7.11494 3.92428 6.77346C4.51276 6.57622 5.09276 6.46699 5.70246 6.59425L5.63353 6.75862C5.53704 6.75862 5.55295 6.71832 5.45646 6.72787C4.97613 6.77771 4.5011 6.91026 4.07167 7.12766C3.22128 7.54124 2.58296 8.29206 2.1917 9.14043C1.80044 9.97078 1.60322 10.9061 1.81528 11.8086C1.93298 12.307 2.16625 12.7821 2.49601 13.1745L2.53101 13.2137L2.10369 13.6845L2.10475 13.6877Z" fill="black"/>
<path d="M20.0087 6.97363C19.9302 6.93121 19.8348 6.88561 19.7553 6.84319C19.7447 6.83682 19.7235 6.82516 19.7171 6.81774C19.909 5.80817 18.9844 5.03297 18.187 4.57909C17.396 4.12733 16.464 3.8463 15.5542 4.04143C14.8809 4.18353 14.2638 4.56848 13.8047 5.09448C14.126 4.44759 14.7187 3.91311 15.4397 3.64906C16.4449 3.27471 17.5625 3.51226 18.5041 3.95447C19.5071 4.39669 20.5261 5.24188 20.4667 6.45081C20.454 6.65018 20.4201 6.85697 20.3353 7.03725C20.3289 7.04361 20.295 7.04255 20.2854 7.04361C20.2536 7.04149 20.2006 7.02877 20.1667 7.02453C20.1137 7.00968 20.0585 6.99377 20.0066 6.97575L20.0087 6.97363Z" fill="black"/>
<path d="M15.6732 12.2428C15.6604 13.6341 14.8663 15.0286 13.6151 15.6744C13.1962 15.895 12.7329 16.0339 12.2663 16.1082C11.3385 16.2736 10.3143 16.122 9.5275 15.5811C8.763 15.071 8.18088 14.2799 7.90625 13.4114C8.36113 14.1452 8.98779 14.7953 9.75759 15.1919C11.0554 15.8717 12.7 15.6532 13.8876 14.843C14.7793 14.2386 15.3731 13.2672 15.6742 12.2417L15.6732 12.2428Z" fill="black"/>
<path d="M16.2146 14.8646C15.6177 14.9568 14.9953 14.9208 14.4078 14.7628C14.4057 15.0332 14.2191 15.2548 13.9985 15.398C13.9964 15.3991 13.9943 15.4001 13.9922 15.4012C14.0632 15.4245 14.1353 15.4468 14.2064 15.4659C14.8351 15.6472 15.5254 15.7151 16.1765 15.5772C17.3905 15.3312 18.4541 14.4552 18.9461 13.3301C18.2187 14.101 17.2707 14.7076 16.2136 14.8646H16.2146Z" fill="black"/>
<path d="M9.15002 16.3548C9.73108 16.1904 10.2825 15.8999 10.7522 15.5117C10.8667 15.7567 11.1286 15.8808 11.3884 15.9189C11.3905 15.9189 11.3926 15.9189 11.3947 15.9189C11.3396 15.9698 11.2834 16.0197 11.2261 16.0674C10.7289 16.4937 10.1298 16.8426 9.47978 16.9868C8.27312 17.2679 6.94241 16.9126 6.02734 16.0939C7.00921 16.4927 8.12362 16.6507 9.15108 16.3548H9.15002Z" fill="black"/>
<path d="M11.7755 21.0206C11.52 20.2338 11.1966 19.4575 10.8202 18.7205C10.4459 18.0004 10.0048 17.2931 9.4375 16.7204L9.85739 16.3228C10.431 16.9887 10.8393 17.7533 11.1849 18.5476C11.5179 19.3324 11.7893 20.133 11.9971 20.9602L11.7745 21.0206H11.7755Z" fill="black"/>
<path d="M12.8316 20.9824C12.7043 20.1086 12.4838 19.238 12.1954 18.4045C11.9059 17.5815 11.5263 16.7788 11.0078 16.082L11.4754 15.7427C12.0003 16.5168 12.3629 17.3758 12.6322 18.2623C12.8931 19.1425 13.0776 20.0344 13.1698 20.9475L12.8316 20.9824Z" fill="black"/>
<path d="M13.8801 20.8318C13.4326 19.0152 13.1135 17.1584 13.1707 15.2803L13.7475 15.3184C13.6404 16.6769 13.7666 18.0513 13.967 19.3991C14.0359 19.8509 14.1155 20.3058 14.2109 20.7502L13.8801 20.8308V20.8318Z" fill="black"/>
<path d="M14.9915 20.2943C14.8558 19.4501 14.7858 18.606 14.7774 17.7513C14.7763 16.8838 14.8378 16.0184 15.0849 15.1743L15.632 15.361C15.3521 16.1213 15.2365 16.9495 15.1824 17.7629C15.1336 18.5922 15.1464 19.4353 15.2206 20.2624L14.9926 20.2943H14.9915Z" fill="black"/>
<path d="M11.9947 25.4999L10.2346 30.9984C9.57715 33.0515 11.3893 35.0473 13.4961 34.5902L19.1371 33.3654C21.244 32.9083 22.0657 30.3409 20.6163 28.7449L16.7354 24.4712C15.286 22.8752 12.6521 23.4468 11.9947 25.4999Z" fill="black"/>
<path d="M13.8263 22.4851C14.3671 22.3673 14.9662 22.5179 15.3914 22.9867L21.9675 30.2286C22.8179 31.165 22.3355 32.6719 21.0991 32.9402L11.5403 35.0145C10.3039 35.2828 9.2404 34.112 9.62636 32.9073L12.6091 23.5901C12.802 22.9877 13.2845 22.6028 13.8253 22.4851M13.6779 21.8032C12.8508 21.9824 12.203 22.571 11.9442 23.3769L8.96153 32.6942C8.70387 33.5001 8.88943 34.3559 9.45776 34.9827C10.0272 35.6094 10.8606 35.8766 11.6876 35.6964L21.2465 33.6221C22.0736 33.4429 22.7214 32.8543 22.9802 32.0484C23.2378 31.2424 23.0523 30.3866 22.4839 29.7599L15.9078 22.5179C15.3384 21.8912 14.5049 21.624 13.6779 21.8042V21.8032Z" fill="black"/>
<path d="M16.0842 18.4L16.4182 19.9398C16.486 20.2527 16.2877 20.5613 15.9749 20.6291L12.8364 21.31L15.8986 21.3004L16.9186 26.0015L12.2755 27.0089L11.1197 21.6822L10.9076 21.7278C10.5948 21.7956 10.2863 21.5973 10.2184 21.2845L9.8844 19.7447C9.81654 19.4319 10.0148 19.1233 10.3276 19.0554L15.396 17.9557C15.7088 17.8878 16.0174 18.0861 16.0852 18.399L16.0842 18.4Z" fill="black"/>
<path d="M21.1 32.9402L11.5412 35.0144C10.3048 35.2827 9.24131 34.112 9.62727 32.9073L11.7193 26.3737C13.6873 26.4321 16.1165 26.361 17.988 25.8467L21.9674 30.2296C22.8178 31.166 22.3353 32.6718 21.099 32.9412L21.1 32.9402Z" fill="#F6DA24"/>
<path d="M21.6022 29.8425C21.0126 29.8563 20.3945 29.7821 19.772 29.6092C17.8062 29.0652 16.3726 27.6961 16.0195 26.2168C16.7056 26.133 17.3683 26.0132 17.9727 25.8467L21.6011 29.8425H21.6022Z" fill="#B78B00"/>
<path d="M21.099 32.9404L11.5402 35.0147C10.3038 35.283 9.24137 34.1122 9.62733 32.9075L11.7194 26.3729L11.7671 26.3623C12.7712 27.4779 15.369 29.9637 18.4768 29.7897C19.8436 29.7134 20.8393 29.8162 21.5582 29.9849C21.7162 30.022 21.8593 30.1079 21.9685 30.2288C22.8189 31.1652 22.3365 32.671 21.1001 32.9393L21.099 32.9404Z" fill="#EFB920"/>
<path d="M22.3318 31.7825C22.176 32.3318 21.738 32.8016 21.0997 32.9395L11.5408 35.0137C10.3045 35.282 9.24204 34.1113 9.62694 32.9066L11.719 26.373C11.9236 26.3783 12.3965 26.3879 12.3965 26.3879L10.6544 31.8079C10.2684 33.0126 11.3319 34.1834 12.5683 33.9151L22.1272 31.8408C22.1982 31.8249 22.2661 31.8058 22.3318 31.7825Z" fill="white"/>
<path d="M25.5094 26.1527C25.9249 24.6531 24.3706 22.9132 22.0376 22.2666C19.7047 21.6199 17.4766 22.3114 17.061 23.8111C16.6455 25.3107 18.1998 27.0506 20.5328 27.6972C22.8657 28.3438 25.0938 27.6523 25.5094 26.1527Z" fill="#FFCF57"/>
<path d="M25.8863 26.7025C26.4277 24.7485 24.7558 22.5795 22.152 21.8578C19.5481 21.136 16.9984 22.135 16.4569 24.089C15.9155 26.0429 17.5874 28.212 20.1912 28.9337C22.7951 29.6554 25.3448 28.6565 25.8863 26.7025Z" fill="black"/>
<path d="M25.4547 25.8676C25.8703 24.3679 24.3159 22.628 21.9829 21.9814C19.65 21.3348 17.4219 22.0263 17.0063 23.5259C16.5908 25.0255 18.1451 26.7654 20.4781 27.412C22.8111 28.0587 25.0392 27.3672 25.4547 25.8676Z" fill="#EFB920"/>
<path d="M25.4506 25.8658C25.0349 27.3653 22.8061 28.0567 20.4734 27.4098C18.1407 26.7629 16.5851 25.0227 17.0008 23.5243C17.4164 22.0258 19.6453 21.3333 21.978 21.9802C23.1518 22.3058 24.1283 22.9071 24.7571 23.6165C24.2768 23.1722 23.613 22.8021 22.839 22.5868C21.0332 22.0863 19.3102 22.6218 18.9879 23.782C18.6666 24.9421 19.869 26.2879 21.6747 26.7884C23.4137 27.2698 25.0773 26.7916 25.4845 25.7194C25.475 25.7682 25.4644 25.817 25.4506 25.8658Z" fill="#F6DA24"/>
<path d="M18.0547 23.4601C18.218 22.6955 19.0111 22.2247 19.7311 22.0571C21.5114 21.634 23.9247 22.4601 24.6234 24.2597C24.7475 24.634 24.7454 25.0699 24.5513 25.3976C24.5577 24.668 24.1569 24.0953 23.6458 23.6361C22.6014 22.7772 21.1604 22.3413 19.8106 22.4855C19.1267 22.5725 18.4247 22.8281 18.0547 23.4601Z" fill="black"/>
<path d="M24.4448 25.7734C24.3037 26.5507 23.5011 27.0428 22.7769 27.2209C20.9775 27.6685 18.526 26.8243 17.8421 24.9887C17.7201 24.6069 17.736 24.1583 17.9481 23.8359C18.0457 25.2771 19.4241 26.0937 20.6689 26.486C21.8629 26.8477 23.6654 26.9463 24.4437 25.7734H24.4448Z" fill="#FFF7EB"/>
<path d="M22.4178 18.5298C23.594 17.278 23.8953 15.6503 23.0909 14.8943C22.2865 14.1383 20.6809 14.5402 19.5047 15.792C18.3285 17.0438 18.0271 18.6715 18.8315 19.4275C19.6359 20.1835 21.2416 19.7816 22.4178 18.5298Z" fill="#FFCF57"/>
<path d="M23.0822 19.153C24.3948 17.7561 24.6091 15.8251 23.5611 14.8401C22.513 13.8551 20.5993 14.189 19.2867 15.5859C17.9742 16.9828 17.7598 18.9138 18.8079 19.8988C19.856 20.8838 21.7697 20.5499 23.0822 19.153Z" fill="black"/>
<path d="M22.2185 18.4712C23.3947 17.2194 23.6961 15.5917 22.8917 14.8357C22.0873 14.0797 20.4817 14.4816 19.3055 15.7334C18.1293 16.9852 17.8279 18.6129 18.6323 19.3689C19.4367 20.1249 21.0423 19.723 22.2185 18.4712Z" fill="#EFB920"/>
<path d="M22.8932 14.8358C23.698 15.5919 23.3958 17.2197 22.2199 18.4711C21.044 19.7224 19.4376 20.1254 18.6339 19.3693C17.8301 18.6132 18.1313 16.9853 19.3072 15.734C19.8988 15.1041 20.5997 14.6894 21.2518 14.5293C20.8139 14.6841 20.3622 14.9789 19.972 15.3936C19.0622 16.3618 18.829 17.6216 19.4514 18.2059C20.0738 18.7913 21.3154 18.4795 22.2263 17.5113C23.1031 16.5781 23.3513 15.3755 22.8126 14.7658C22.8402 14.788 22.8678 14.8114 22.8932 14.8358Z" fill="#F6DA24"/>
<path d="M18.9419 18.6885C18.4849 18.3534 18.4287 17.6726 18.5539 17.154C18.8592 15.8475 20.2122 14.5792 21.6161 14.7744C21.9003 14.8295 22.1802 14.9992 22.3021 15.2484C21.3574 14.8836 20.4285 15.4637 19.7711 16.1127C19.1498 16.7489 18.4966 17.7924 18.9409 18.6885H18.9419Z" fill="black"/>
<path d="M22.5019 15.4385C22.9801 15.7598 23.0511 16.4597 22.9334 16.9868C22.6387 18.3208 21.2549 19.6167 19.8245 19.3898C19.534 19.3283 19.2498 19.1438 19.1406 18.8786C20.0939 19.1756 20.9708 18.6167 21.6292 17.9741C22.2421 17.3494 22.9027 16.3335 22.5008 15.4385H22.5019Z" fill="#FFF7EB"/>
<path d="M7.439 25.733C9.19298 24.2838 9.85991 22.1951 8.92862 21.0676C7.99733 19.9401 5.82048 20.2009 4.0665 21.65C2.31251 23.0992 1.64558 25.1879 2.57687 26.3154C3.50816 27.4429 5.68501 27.1821 7.439 25.733Z" fill="#FFCF57"/>
<path d="M8.21156 26.6616C10.1692 25.0442 10.7726 22.5424 9.55933 21.0735C8.34608 19.6047 5.77559 19.7251 3.81799 21.3425C1.86039 22.9599 1.25697 25.4617 2.47022 26.9306C3.68347 28.3994 6.25395 28.279 8.21156 26.6616Z" fill="black"/>
<path d="M7.1929 25.6226C8.94689 24.1735 9.61382 22.0847 8.68253 20.9572C7.75124 19.8297 5.57439 20.0905 3.82041 21.5397C2.06642 22.9888 1.39949 25.0776 2.33078 26.2051C3.26207 27.3325 5.43891 27.0718 7.1929 25.6226Z" fill="#EFB920"/>
<path d="M8.68691 20.9549C9.61788 22.0822 8.95093 24.1713 7.19715 25.621C5.44336 27.0706 3.26544 27.3315 2.33447 26.2042C1.4035 25.0769 2.07045 22.9878 3.82423 21.5382C4.70643 20.8086 5.69678 20.3801 6.5811 20.2783C5.97989 20.4088 5.33733 20.7205 4.75521 21.202C3.39798 22.324 2.8816 23.9391 3.60263 24.8118C4.32365 25.6846 6.00746 25.482 7.36468 24.3601C8.67207 23.2805 9.19905 21.7407 8.59254 20.8499C8.62541 20.8838 8.65722 20.9188 8.68691 20.9549Z" fill="#F6DA24"/>
<path d="M2.84891 25.3604C2.34101 24.8259 2.40145 23.9553 2.65911 23.3084C3.28894 21.6997 5.23465 20.2797 7.00328 20.7198C7.35955 20.8279 7.69568 21.0687 7.83882 21.3985C7.27367 21.0103 6.6258 21.0157 5.99809 21.162C4.78083 21.5077 3.67384 22.3773 3.05567 23.4876C2.75242 24.0581 2.56792 24.7315 2.84891 25.3593V25.3604Z" fill="black"/>
<path d="M8.07195 21.6812C8.60318 22.205 8.5544 23.0948 8.3031 23.7522C7.67751 25.3939 5.70529 26.8297 3.91015 26.3589C3.54858 26.2443 3.21139 25.9845 3.08203 25.6441C4.25158 26.3218 5.60244 25.7046 6.57476 24.958C7.49301 24.2348 8.53956 22.9145 8.07089 21.6822L8.07195 21.6812Z" fill="#FFF7EB"/>
<defs>
<linearGradient id="paint0_linear_17053_1308" x1="53.0042" y1="0.816258" x2="53.0042" y2="36.676" gradientUnits="userSpaceOnUse">
<stop offset="0.26" stop-color="#99F201"/>
<stop offset="0.53" stop-color="#7EC702"/>
<stop offset="0.88" stop-color="#70B103"/>
</linearGradient>
<linearGradient id="paint1_linear_17053_1308" x1="21.906" y1="32.5107" x2="21.906" y2="32.5192" gradientUnits="userSpaceOnUse">
<stop offset="0.1" stop-color="#99F201"/>
<stop offset="0.53" stop-color="#7EC702"/>
<stop offset="1" stop-color="#70B103"/>
</linearGradient>
</defs>
</svg>
